<svg width="20" height="20" viewBox="0 0 20 20" fill="none" xmlns="http://www.w3.org/2000/svg">
<path d="M16.9444 20H3.05556C1.36111 20 0 18.6389 0 16.9444V3.05556C0 1.36111 1.36111 0 3.05556 0H16.9444C18.6389 0 20 1.36111 20 3.05556V16.9444C20 18.6389 18.6389 20 16.9444 20Z" fill="#EC008C"/>
<path d="M13.4167 5.33334H6.58333C5.80555 5.33334 5.13889 5.97223 5.13889 6.77779V13.2222C5.13889 14.0278 5.77777 14.6667 6.58333 14.6667H13.4444C14.2222 14.6667 14.8889 14.0278 14.8889 13.2222V6.77779C14.8611 6.00001 14.2222 5.33334 13.4167 5.33334ZM12.5 6.50001C12.75 6.50001 12.9444 6.69445 12.9444 6.94445C12.9444 7.19445 12.75 7.3889 12.5 7.3889C12.25 7.3889 12.0556 7.19445 12.0556 6.94445C12.0278 6.69445 12.25 6.50001 12.5 6.50001ZM7.5 6.50001C7.75 6.50001 7.94444 6.69445 7.94444 6.94445C7.94444 7.19445 7.75 7.3889 7.5 7.3889C7.25 7.3889 7.05555 7.19445 7.05555 6.94445C7.05555 6.69445 7.25 6.50001 7.5 6.50001ZM14.2778 13.2222C14.2778 13.6945 13.8889 14.0556 13.4444 14.0556H6.58333C6.11111 14.0556 5.75 13.6667 5.75 13.2222V8.50001H14.3056V13.2222H14.2778Z" fill="white"/>
<path d="M8.6111 12.7222H9.24999V9.75H8.02777V10.3056H8.6111V12.7222Z" fill="white"/>
<path d="M10.8611 12.1667C10.75 12.1667 10.6389 12.1389 10.5278 12.0834C10.4167 12.0278 10.3333 11.9722 10.3056 11.9445C10.25 11.9167 10.2222 11.8889 10.1945 11.8611L9.83334 12.3611C10.1111 12.6667 10.4445 12.8056 10.8611 12.8056C11.1667 12.8056 11.4445 12.7222 11.6667 12.5278C11.8889 12.3333 12 12.0834 12 11.8056C12 11.5278 11.8889 11.2778 11.6945 11.1111C11.4722 10.9445 11.25 10.8611 10.9445 10.8611C10.8333 10.8611 10.7222 10.8611 10.6389 10.8889V10.3889H11.8333V9.80557H10.0278V11.2778L10.3056 11.5834C10.5 11.4722 10.6945 11.4167 10.8333 11.4167C10.9722 11.4167 11.1111 11.4445 11.1945 11.5278C11.2778 11.6111 11.3333 11.6945 11.3333 11.8333C11.3333 11.9722 11.2778 12.0556 11.1945 12.1389C11.0833 12.1389 10.9722 12.1667 10.8611 12.1667Z" fill="white"/>
</svg>
