<svg width="21" height="20" viewBox="0 0 21 20" fill="none" xmlns="http://www.w3.org/2000/svg">
<path opacity="0.5" d="M8.23747 0C12.7738 0 16.5217 3.53368 16.5217 7.85396C16.5217 9.49595 15.9388 11.0067 15.024 12.2718L20.5469 17.5375C20.6883 17.6694 20.8011 17.8265 20.8788 17.9999C20.9566 18.1733 20.9977 18.3596 20.9999 18.5482C21.0021 18.7368 20.9653 18.9239 20.8917 19.0989C20.818 19.274 20.7089 19.4334 20.5706 19.5682C20.4323 19.7031 20.2674 19.8106 20.0855 19.8846C19.9036 19.9587 19.7082 19.9979 19.5104 19.9999C19.3126 20.002 19.1164 19.9668 18.9328 19.8965C18.7493 19.8263 18.582 19.7222 18.4407 19.5903L12.9178 14.3245C11.5889 15.1969 9.96284 15.7079 8.23747 15.7079C3.70108 15.7079 0 12.1742 0 7.85396C0 3.53368 3.70108 0 8.23747 0ZM8.23747 2.85598C5.32086 2.85598 2.99544 5.0763 2.99544 7.85396C2.99544 10.6316 5.32086 12.8519 8.23747 12.8519C11.1541 12.8519 13.4795 10.6316 13.4795 7.85396C13.4795 5.0763 11.1541 2.85598 8.23747 2.85598Z" fill="black"/>
</svg>
