<svg xmlns="http://www.w3.org/2000/svg" width="18" height="21" viewBox="0 0 18 21" fill="none">
  <g clip-path="url(#clip0_44_51)">
    <path fill-rule="evenodd" clip-rule="evenodd" d="M1 11.3889H7C7.55 11.3889 8 10.8843 8 10.2676V1.29667C8 0.679921 7.55 0.175308 7 0.175308H1C0.45 0.175308 0 0.679921 0 1.29667V10.2676C0 10.8843 0.45 11.3889 1 11.3889ZM1 20.3598H7C7.55 20.3598 8 19.8552 8 19.2385V14.753C8 14.1363 7.55 13.6317 7 13.6317H1C0.45 13.6317 0 14.1363 0 14.753V19.2385C0 19.8552 0.45 20.3598 1 20.3598ZM11 20.3598H17C17.55 20.3598 18 19.8552 18 19.2385V10.2676C18 9.65082 17.55 9.14621 17 9.14621H11C10.45 9.14621 10 9.65082 10 10.2676V19.2385C10 19.8552 10.45 20.3598 11 20.3598ZM10 1.29667V5.78212C10 6.39887 10.45 6.90348 11 6.90348H17C17.55 6.90348 18 6.39887 18 5.78212V1.29667C18 0.679921 17.55 0.175308 17 0.175308H11C10.45 0.175308 10 0.679921 10 1.29667Z" fill="#434343"/>
  </g>
  <defs>
    <clipPath id="clip0_44_51">
      <rect width="18" height="20.1845" fill="white" transform="translate(0 0.175308)"/>
    </clipPath>
  </defs>
</svg>