<svg width="92" height="68" viewBox="0 0 92 68" fill="none" xmlns="http://www.w3.org/2000/svg">
<g id="undraw_conference_call_b0w6 1" clip-path="url(#clip0_106_166)">
<path id="Vector" d="M92 0.151855H0.0393066V67.0926H92V0.151855Z" fill="#E6E6E6"/>
<path id="Vector_2" d="M89.3705 8.54788H2.66895V63.1324H89.3705V8.54788Z" fill="white"/>
<path id="Vector_3" d="M91.9607 0.0925903H0V4.53308H91.9607V0.0925903Z" fill="#F9A826"/>
<path id="Vector_4" d="M2.9033 3.18582C3.30321 3.18582 3.6274 2.81734 3.6274 2.36281C3.6274 1.90827 3.30321 1.53979 2.9033 1.53979C2.50339 1.53979 2.1792 1.90827 2.1792 2.36281C2.1792 2.81734 2.50339 3.18582 2.9033 3.18582Z" fill="white"/>
<path id="Vector_5" d="M5.65183 3.18582C6.05174 3.18582 6.37594 2.81734 6.37594 2.36281C6.37594 1.90827 6.05174 1.53979 5.65183 1.53979C5.25192 1.53979 4.92773 1.90827 4.92773 2.36281C4.92773 2.81734 5.25192 3.18582 5.65183 3.18582Z" fill="white"/>
<path id="Vector_6" d="M8.40037 3.18582C8.80028 3.18582 9.12447 2.81734 9.12447 2.36281C9.12447 1.90827 8.80028 1.53979 8.40037 1.53979C8.00046 1.53979 7.67627 1.90827 7.67627 2.36281C7.67627 2.81734 8.00046 3.18582 8.40037 3.18582Z" fill="white"/>
<path id="Vector_7" d="M30.294 13.0374H13.3364V33.9479H30.294V13.0374Z" fill="#E6E6E6"/>
<path id="Vector_8" d="M54.4983 13.0374H37.5408V33.9479H54.4983V13.0374Z" fill="#E6E6E6"/>
<path id="Vector_9" d="M78.7024 13.0374H61.7449V33.9479H78.7024V13.0374Z" fill="#E6E6E6"/>
<path id="Vector_10" d="M30.294 37.7328H13.3364V58.6432H30.294V37.7328Z" fill="#E6E6E6"/>
<path id="Vector_11" d="M54.4983 37.7328H37.5408V58.6432H54.4983V37.7328Z" fill="#E6E6E6"/>
<path id="Vector_12" d="M78.7024 37.7328H61.7449V58.6432H78.7024V37.7328Z" fill="#E6E6E6"/>
<path id="Vector_13" d="M19.9234 25.6814C21.5065 25.6814 22.7898 24.2227 22.7898 22.4233C22.7898 20.624 21.5065 19.1653 19.9234 19.1653C18.3403 19.1653 17.0569 20.624 17.0569 22.4233C17.0569 24.2227 18.3403 25.6814 19.9234 25.6814Z" fill="#FFB9B9"/>
<path id="Vector_14" d="M18.8037 24.9177C18.8037 24.9177 19.162 26.8522 19.162 27.0558C19.162 27.2594 20.864 28.1758 20.864 28.1758L22.3868 27.8703L22.9243 26.0377C22.9243 26.0377 22.0285 24.5105 22.0285 23.8996L18.8037 24.9177Z" fill="#FFB9B9"/>
<path id="Vector_15" d="M17.4376 19.7984C17.4376 19.7984 18.3477 17.5572 20.092 18.0744C21.8364 18.5916 22.8223 19.3674 22.8982 20.1432C22.974 20.919 22.8602 22.0827 22.8602 22.0827C22.8602 22.0827 22.6706 20.488 21.4572 20.8328C20.2437 21.1776 18.3477 20.919 18.3477 20.919L18.0443 24.0223C18.0443 24.0223 17.703 23.4619 17.3238 23.8068C16.9446 24.1516 16.2241 20.488 17.4376 19.7984Z" fill="#2F2E41"/>
<path id="Vector_16" d="M29.0152 33.1648L28.2992 29.4989C27.9401 28.2769 27.0451 27.2597 27.0451 27.2597L22.6276 25.4939H22.6264C22.6178 25.9377 22.4862 26.3671 22.2503 26.7209C22.0144 27.0748 21.6863 27.3349 21.3127 27.4644C19.9685 27.9724 19.0431 26.2603 19.0431 26.2603L15.3089 29.4989C15.3089 29.4989 14.1449 30.6198 14.2349 32.7579L14.1111 33.9479H29.3597L29.0152 33.1648Z" fill="#F9A826"/>
<path id="Vector_17" d="M44.0628 27.305C46.2116 27.305 47.9535 25.2033 47.9535 22.6107C47.9535 20.0181 46.2116 17.9164 44.0628 17.9164C41.914 17.9164 40.1721 20.0181 40.1721 22.6107C40.1721 25.2033 41.914 27.305 44.0628 27.305Z" fill="#2F2E41"/>
<path id="Vector_18" d="M47.5148 29.7144C48.6452 29.7144 49.5616 28.6729 49.5616 27.388C49.5616 26.1032 48.6452 25.0617 47.5148 25.0617C46.3844 25.0617 45.468 26.1032 45.468 27.388C45.468 28.6729 46.3844 29.7144 47.5148 29.7144Z" fill="#2F2E41"/>
<path id="Vector_19" d="M46.0894 24.2724L47.1859 27.5126L44.4081 28.8421L44.1642 28.2137L43.3115 26.0172L46.0894 24.2724Z" fill="#9F616A"/>
<path id="Vector_20" d="M43.8963 26.391C45.2488 26.391 46.3452 25.1449 46.3452 23.6077C46.3452 22.0705 45.2488 20.8243 43.8963 20.8243C42.5439 20.8243 41.4475 22.0705 41.4475 23.6077C41.4475 25.1449 42.5439 26.391 43.8963 26.391Z" fill="#9F616A"/>
<path id="Vector_21" d="M41.8948 23.3024C43.434 22.135 43.8941 21.856 45.6583 22.3069L45.7641 19.3815L41.2051 20.4685L41.8948 23.3024Z" fill="#2F2E41"/>
<path id="Vector_22" d="M51.7908 29.9211L51.7232 29.9301C51.7216 29.9273 51.7197 29.9247 51.7176 29.9224C51.4497 29.6179 50.1708 29.0638 49.2173 28.68H49.2161C48.6105 28.4356 48.1365 28.2603 48.1365 28.2603L46.9837 26.9129C46.6933 27.284 46.0797 27.5706 45.4966 27.7728C45.0501 27.9264 44.596 28.0494 44.1366 28.1413H44.1355L43.8968 29.0075C43.8968 29.0075 41.1916 31.335 40.9732 31.5833H40.9721V31.5858C40.9547 31.6141 40.9474 31.6489 40.9518 31.6831V31.6895C40.8154 32.4324 40.7452 33.189 40.7424 33.9479H52.5225V33.1622C52.5225 32.0823 51.7908 29.9211 51.7908 29.9211Z" fill="#575A89"/>
<path id="Vector_23" d="M73.4528 33.9479H67.628L67.3072 30.351L67.288 30.1322L67.2486 29.6985L67.0876 27.8853L66.8861 29.8328L66.4606 33.9479H65.4023L65.4417 32.667L65.4811 31.3683L65.498 30.8449L65.7153 23.7255C65.6986 22.5973 66.0127 21.4949 66.608 20.5919C66.9386 20.1028 67.3651 19.7083 67.8535 19.4397C68.3419 19.1711 68.8788 19.0359 69.4214 19.0449C69.9749 19.0429 70.5213 19.1866 71.0178 19.4647C71.5143 19.7429 71.9474 20.148 72.2831 20.6482C72.8984 21.5602 73.2277 22.6799 73.2186 23.8292L73.3188 28.1387L73.4528 33.9479Z" fill="#2F2E41"/>
<path id="Vector_24" d="M69.4214 26.2732C70.8364 26.2732 71.9835 24.9695 71.9835 23.3612C71.9835 21.7529 70.8364 20.4492 69.4214 20.4492C68.0064 20.4492 66.8594 21.7529 66.8594 23.3612C66.8594 24.9695 68.0064 26.2732 69.4214 26.2732Z" fill="#FBBEBE"/>
<path id="Vector_25" d="M68.1406 25.4412C68.1406 25.4412 68.8726 28.2492 68.1406 29.0812C67.4086 29.9132 67.2256 30.2252 67.2256 30.2252L69.3301 33.4492L72.9902 28.3532C72.9902 28.3532 70.4281 27.5212 71.0686 25.2332L68.1406 25.4412Z" fill="#FBBEBE"/>
<path id="Vector_26" d="M76.0444 33.9479H73.8829L73.8469 33.5269L73.8142 33.1379L74.8094 32.9959L76.0095 32.8257L76.023 33.262L76.0444 33.9479Z" fill="#FBBEBE"/>
<path id="Vector_27" d="M76.1925 33.2412C76.1925 33.2412 75.8265 30.6412 75.552 29.6012C75.2775 28.5612 75.003 28.5612 75.003 28.5612L75.003 28.561C74.6799 28.1937 73.9031 28.1285 73.3188 28.1387C72.909 28.1438 72.5938 28.1848 72.5938 28.1848L69.3302 32.0976L67.6865 29.614V29.6127C67.5385 29.6258 67.3919 29.6545 67.2486 29.6985C67.1253 29.7342 67.0042 29.7791 66.8861 29.8328C66.3771 30.0801 65.908 30.4221 65.498 30.845H65.4969C65.2605 31.0868 65.1209 31.2647 65.1209 31.2647C64.7589 32.12 64.4861 33.0205 64.3081 33.9479H74.7665L74.7902 33.413V33.412L76.1925 33.2412Z" fill="#F9A826"/>
<path id="Vector_28" d="M67.2711 22.8932C68.9258 21.8792 69.6056 21.9222 71.6632 22.8932L72.2122 21.3729C72.2119 21.0866 72.1117 20.8122 71.9336 20.6098C71.7556 20.4074 71.5141 20.2935 71.2622 20.2932H67.5806C67.3287 20.2935 67.0872 20.4074 66.9092 20.6098C66.7311 20.8122 66.6309 21.0866 66.6306 21.3729L67.2711 22.8932Z" fill="#2F2E41"/>
<path id="Vector_29" d="M21.5911 42.794C21.4548 42.7812 21.3183 42.8159 21.1997 42.8933C21.0872 43.0024 20.9968 43.1379 20.9349 43.2906C20.6485 43.8623 20.2607 44.3602 19.7961 44.7527C19.4577 45.0344 19.0275 45.3858 19.0854 45.9053C19.1159 46.0768 19.1717 46.2413 19.2503 46.3918C19.5625 47.108 20.4143 47.6615 20.3305 48.4788C20.6407 47.8887 20.2258 47.5969 20.536 47.0067C20.6837 46.7257 20.9403 46.4084 21.1633 46.5849C21.2379 46.644 21.287 46.75 21.3647 46.8019C21.5502 46.9256 21.7476 46.6891 21.9118 46.5215C22.478 45.9438 23.2833 46.0951 23.9879 46.2751C24.3206 46.3601 24.686 46.4716 24.8826 46.833C25.1412 47.3081 24.637 47.8212 24.5096 48.3584C24.4992 48.4042 24.4987 48.4521 24.5081 48.4982C24.5176 48.5442 24.5367 48.587 24.5639 48.6228C24.591 48.6586 24.6254 48.6864 24.6641 48.7038C24.7028 48.7212 24.7446 48.7277 24.7859 48.7227C24.9974 48.699 25.2478 48.6796 25.2603 48.5741C25.5264 48.5849 25.8523 48.5506 25.9663 48.2358C26.0011 48.1112 26.0195 47.9815 26.0209 47.8508C26.0627 47.322 26.2602 46.8395 26.391 46.3362C26.5219 45.8329 26.5787 45.243 26.358 44.7967C26.2792 44.6483 26.1817 44.5137 26.0687 44.3972C24.8159 43.0192 23.1687 42.7919 21.5911 42.794Z" fill="#2F2E41"/>
<path id="Vector_30" d="M20.603 49.5111C20.603 49.5111 20.8755 52.0919 19.8764 52.2983C18.8774 52.5048 20.7847 56.0146 20.7847 56.0146L25.3258 56.6339L24.2359 52.5048C24.2359 52.5048 23.5093 52.1951 23.9635 50.1305C24.4176 48.0659 20.603 49.5111 20.603 49.5111Z" fill="#9F616A"/>
<path id="Vector_31" d="M22.6466 51.2144C24.1514 51.2144 25.3713 49.8279 25.3713 48.1175C25.3713 46.4072 24.1514 45.0207 22.6466 45.0207C21.1418 45.0207 19.9219 46.4072 19.9219 48.1175C19.9219 49.8279 21.1418 51.2144 22.6466 51.2144Z" fill="#9F616A"/>
<path id="Vector_32" d="M17.9568 58.6432C18.4386 56.4897 19.104 53.589 19.104 53.589C19.104 53.589 19.3629 53.6491 19.7704 53.717C20.3657 53.8177 20.9656 53.8797 21.5671 53.9025C22.3372 53.9268 23.1477 53.8692 23.7748 53.6223C24.0112 53.536 24.232 53.4021 24.4266 53.2269C24.5086 53.1519 24.582 53.0655 24.645 52.9697C25.7348 51.3178 26.1884 57.6145 26.1884 57.6145L26.2729 58.6432L17.9568 58.6432Z" fill="#F9A826"/>
<path id="Vector_33" d="M26.6623 65.2969C26.6262 65.2969 26.5902 65.2982 26.5542 65.3007L26.606 65.1907C26.624 65.2252 26.642 65.2611 26.6623 65.2969Z" fill="#FFB8B8"/>
<path id="Vector_34" d="M21.7238 43.6042C21.614 43.595 21.5039 43.6193 21.4051 43.6745C21.3158 43.7487 21.2421 43.8446 21.1896 43.9552C20.9473 44.3694 20.6316 44.7214 20.2625 44.9887C19.9871 45.1878 19.6369 45.4361 19.684 45.8033C19.7096 45.9264 19.7551 46.043 19.8183 46.1472C20.0733 46.6585 20.1748 47.2504 20.1074 47.8331L20.8649 46.5818C20.9851 46.3832 21.194 46.1589 21.3755 46.2837C21.4363 46.3255 21.4762 46.4004 21.5395 46.437C21.6905 46.5245 21.8511 46.3573 21.9848 46.2389C22.4458 45.8305 23.1013 45.9375 23.6749 46.0647C23.9457 46.1248 24.2431 46.2036 24.4032 46.459C24.6692 46.8835 24.3914 47.4967 24.5467 47.9871C24.5901 47.9525 24.6271 47.9084 24.6552 47.8573C24.6834 47.8062 24.7023 47.7492 24.7107 47.6896C24.9272 47.6972 25.1926 47.673 25.2853 47.4505C25.3136 47.3633 25.3286 47.2713 25.3298 47.1784C25.3639 46.8046 25.5246 46.4636 25.6311 46.1079C25.7376 45.7521 25.7839 45.3352 25.6042 45.0198C25.5384 44.9129 25.4591 44.8178 25.3687 44.7374C24.3489 43.7634 23.008 43.6028 21.7238 43.6042Z" fill="#2F2E41"/>
<path id="Vector_35" d="M21.4658 53.6914C20.8444 52.884 20.4751 51.7068 20.4582 51.6543V51.653C20.4582 51.653 19.4675 51.0081 19.1951 51.6274C18.9227 52.2467 16.3795 53.795 16.1071 53.795C16.1049 53.7961 16.1027 53.797 16.1004 53.7976C15.9923 53.8385 14.6391 54.3977 14.2912 56.4795C14.1968 57.1959 14.1464 57.9189 14.1404 58.6432H21.5469C21.6234 57.7309 21.6808 56.8774 21.7033 56.1404C21.736 55.1129 21.7045 54.3145 21.5671 53.9025C21.5452 53.8256 21.5108 53.754 21.4658 53.6914Z" fill="#2F2E41"/>
<path id="Vector_36" d="M27.8341 54.2723C27.8296 54.248 27.8263 54.2275 27.8229 54.2083C27.8108 54.1534 27.7902 54.1014 27.7621 54.0548C27.7615 54.0536 27.7611 54.0523 27.761 54.0509C27.2364 53.1271 23.8624 51.8552 23.8624 51.8552L23.7363 52.3504C23.7363 52.3504 23.7521 52.8392 23.7746 53.6223C23.7971 54.3555 23.8241 55.3458 23.85 56.4335C23.868 57.1436 23.8838 57.896 23.8984 58.6432H28.9453C28.6625 57.1593 28.2913 55.699 27.8341 54.2723Z" fill="#2F2E41"/>
<path id="Vector_37" d="M75.0537 58.6432L75.4399 56.4987L75.799 56.326L75.8012 56.3272C75.8339 56.3413 76.2245 56.5294 76.2245 57.2421C76.2245 57.3854 76.2054 57.9011 76.1739 58.6432H75.0537Z" fill="#575A89"/>
<path id="Vector_38" d="M70.9977 51.1527C72.7296 51.1527 74.1336 49.5569 74.1336 47.5884C74.1336 45.6199 72.7296 44.0241 70.9977 44.0241C69.2658 44.0241 67.8618 45.6199 67.8618 47.5884C67.8618 49.5569 69.2658 51.1527 70.9977 51.1527Z" fill="#FFB8B8"/>
<path id="Vector_39" d="M72.9579 49.6675L72.6965 55.7564L68.646 53.0833L69.1686 49.6675H72.9579Z" fill="#FFB8B8"/>
<path id="Vector_40" d="M74.1338 56.0534L73.8682 58.6432H71.7416L69.4337 53.6031L68.783 52.184L68.4712 51.9524L68.8326 51.859L69.1174 52.0932L72.3045 54.7176L72.8156 52.9735L72.8291 52.9287L72.9574 52.4899L74.1338 56.0534Z" fill="#F9A826"/>
<path id="Vector_41" d="M69.1032 44.0984C69.1032 44.0984 69.4952 41.8707 71.7165 42.3162L71.4552 42.4647C71.4552 42.4647 73.5458 42.1677 73.2844 43.5043C73.2844 43.5043 74.9831 44.6924 74.5911 46.029C74.3606 46.8037 74.1858 47.5984 74.0684 48.4052L73.6764 47.9597C73.6764 47.9597 73.2844 44.9894 70.9325 45.2865C69.1685 45.5092 68.4499 46.456 68.2662 47.1382C68.1816 47.459 68.0736 47.7712 67.9433 48.0716L67.7966 48.1082C67.7966 48.1082 67.0126 44.8409 69.1032 44.0984Z" fill="#2F2E41"/>
<path id="Vector_42" d="M75.8013 56.3272L75.7991 56.326L74.1341 54.5679V53.3804L72.8484 52.2288L72.8293 52.9288L72.6965 57.6874L70.5586 54.3452L69.1176 52.0932L68.8587 51.6902L68.9217 51.3127L68.1236 52.3402L65.2348 54.8033L64.9872 55.0144C64.703 55.3375 64.4411 55.6849 64.2036 56.0534C64.1259 56.1852 63.7725 57.2345 63.312 58.6432H76.174C76.2055 57.9011 76.2246 57.3854 76.2246 57.2421C76.2246 56.5294 75.834 56.3413 75.8013 56.3272Z" fill="#2F2E41"/>
<path id="Vector_43" d="M45.7615 43.6732C43.6365 43.6732 41.9138 45.8461 41.9138 48.5266V51.9321H42.8353L43.3688 50.6703L43.2354 51.9321H49.1585L49.6435 50.785L49.5222 51.9321H50.1891V49.2581C50.1891 46.1737 48.2068 43.6732 45.7615 43.6732Z" fill="#2F2E41"/>
<path id="Vector_44" d="M42.6563 58.6432H40.1537L40.13 56.3234C40.1289 56.2991 40.1289 56.2761 40.1289 56.2518L40.6299 55.6107L40.6389 55.5992L42.5516 56.976L42.6563 58.6432Z" fill="#D0CDE1"/>
<path id="Vector_45" d="M45.421 51.4562C46.9338 51.4562 48.1602 50.0623 48.1602 48.3429C48.1602 46.6235 46.9338 45.2296 45.421 45.2296C43.9082 45.2296 42.6819 46.6235 42.6819 48.3429C42.6819 50.0623 43.9082 51.4562 45.421 51.4562Z" fill="#FBBEBE"/>
<path id="Vector_46" d="M43.8506 50.2109C43.8506 50.2109 44.6541 54.9431 44.2889 55.4412C43.9236 55.9393 48.1602 54.528 48.1602 54.528C48.1602 54.528 46.7723 51.2901 47.5028 49.4637L43.8506 50.2109Z" fill="#FBBEBE"/>
<path id="Vector_47" d="M51.2819 53.4111H51.2808C51.2162 53.256 51.1047 53.1325 50.9667 53.0631C50.4297 52.8059 49.967 52.6089 49.5865 52.4592C48.9135 52.1966 48.1792 52.2225 47.5218 52.5321C47.4577 52.5615 47.3946 52.5935 47.3327 52.6293C47.3327 52.6293 44.6545 53.209 44.3359 53.136C44.3122 53.1309 44.2875 53.1271 44.2638 53.1245C44.2157 53.1167 44.1672 53.112 44.1186 53.1105C43.4954 53.0776 42.8773 53.2519 42.3399 53.612C41.4607 54.1917 40.157 55.2192 40.13 56.2198L40.1052 56.2518L40.13 58.6432H51.8853C51.909 56.3516 51.9225 54.6293 51.9225 54.5128C51.9225 54.1507 51.2819 53.4111 51.2819 53.4111Z" fill="#F9A826"/>
<path id="Vector_48" d="M46.8552 45.0102C46.67 44.7276 46.4301 44.4973 46.154 44.3371C45.8779 44.177 45.573 44.0913 45.263 44.0867H45.1875C43.731 44.0867 42.5503 45.5847 42.5503 47.4325L43.0383 47.4325L43.1171 46.7507L43.2327 47.4325H46.1271L46.3696 46.8557L46.309 47.4325H46.8784C47.1442 48.9324 46.7624 50.4322 45.7331 51.9321H46.7031L47.1881 50.7783L47.0668 51.9321H48.9159L49.2796 49.2785C49.2796 47.2912 48.2637 45.606 46.8552 45.0102Z" fill="#2F2E41"/>
<path id="Vector_49" d="M47.3869 45.2896C48.1828 45.2896 48.828 44.5562 48.828 43.6516C48.828 42.747 48.1828 42.0136 47.3869 42.0136C46.591 42.0136 45.9458 42.747 45.9458 43.6516C45.9458 44.5562 46.591 45.2896 47.3869 45.2896Z" fill="#2F2E41"/>
</g>
<defs>
<clipPath id="clip0_106_166">
<rect width="92" height="67" fill="white" transform="translate(0 0.0925903)"/>
</clipPath>
</defs>
</svg>
