<svg width="106" height="68" viewBox="0 0 106 68" fill="none" xmlns="http://www.w3.org/2000/svg">
<g id="undraw_my_files_swob 1" clip-path="url(#clip0_106_94)">
<path id="Vector" d="M105.775 48.9303C105.22 53.1785 103.499 57.302 100.66 59.9114C97.8665 62.4814 94.2868 63.3944 90.8312 64.1794C86.6867 65.122 82.5309 65.9836 78.3636 66.7642C77.7729 66.8775 77.1817 66.9869 76.5901 67.0926H52.3179C52.2933 67.0532 52.2674 67.0121 52.2429 66.9711C52.2033 66.9021 52.1638 66.8331 52.1255 66.7642C52.1038 66.7247 52.0819 66.6837 52.0601 66.6426H67.2848C67.7168 66.6422 68.131 66.4355 68.4366 66.0679C68.7422 65.7004 68.9143 65.2019 68.915 64.6819V40.2202C69.0132 39.8491 69.1046 39.4763 69.1879 39.0986C69.5761 37.3399 69.8287 35.5418 69.9423 33.7271C70.0241 32.4627 70.0487 31.1982 70.0309 29.9321C69.9805 26.4523 69.6026 22.9726 69.1919 19.5175C69.162 19.263 69.1306 19.0068 69.1006 18.7522C68.8113 16.3514 68.5481 13.7387 69.5534 11.6351C70.7035 9.2277 73.256 8.22433 75.5547 8.47066C79.6896 8.91568 83.1725 12.7271 84.9828 17.225C86.7918 21.7213 87.1969 26.835 87.362 31.8271C87.4493 34.4743 87.4398 37.2397 87.1328 39.8951C88.1696 37.041 89.2073 34.1869 90.246 31.3328C90.7998 29.8106 91.3824 28.239 92.4083 27.1256C94.5528 24.7954 98.0998 25.2651 100.39 27.3867C102.679 29.51 103.935 32.865 104.769 36.1937C105.804 40.3105 106.332 44.682 105.775 48.9303Z" fill="#F2F2F2"/>
<path id="Vector_2" d="M96.6275 25.8558C98.1271 29.0528 98.8151 32.7188 98.7986 36.3771C98.7754 40.0042 98.1088 43.5835 96.8435 46.8754C95.699 49.8478 94.1044 52.5375 92.1415 54.8068C90.2042 57.071 87.9054 58.8386 85.3843 60.0027C82.4588 61.3225 79.2949 61.6844 76.2153 61.0514C75.7874 60.9629 75.3628 60.8557 74.9413 60.7296C74.6856 60.6537 74.5765 61.1287 74.8325 61.2047C78.0371 62.1608 81.3978 62.0444 84.5514 60.8682C87.1781 59.851 89.6017 58.1913 91.6703 55.9932C93.7646 53.7892 95.4965 51.1314 96.776 48.1581C98.1761 44.9028 98.9929 41.3299 99.1737 37.6707C99.3524 33.9575 98.8353 30.1781 97.5012 26.8098C97.3396 26.4016 97.1661 26.0007 96.9809 25.6072C96.9525 25.5531 96.9078 25.5145 96.8563 25.4993C96.8047 25.4842 96.7502 25.4937 96.7044 25.526C96.6586 25.5583 96.6249 25.6107 96.6106 25.6722C96.5962 25.7337 96.6023 25.7996 96.6275 25.8558Z" fill="white"/>
<path id="Vector_3" d="M74.9077 8.40552C76.5705 12.095 77.8662 16.0075 78.7682 20.062C80.5737 28.1827 80.8456 36.687 79.5638 44.9507C78.924 49.0794 77.8804 53.1025 76.4549 56.9359C75.0335 60.737 72.9871 64.7421 69.4917 66.073C69.0972 66.2225 68.6928 66.3313 68.283 66.3982C68.0232 66.4411 68.1338 66.9159 68.3918 66.8733C72.0076 66.2759 74.5201 62.6599 76.0958 58.9739C77.7262 55.16 78.8872 51.0183 79.6592 46.8368C81.1893 38.4934 81.1343 29.8418 79.4982 21.5276C78.6855 17.3857 77.4707 13.3733 75.879 9.57316C75.6791 9.09727 75.4731 8.62517 75.2611 8.15687C75.1352 7.87827 74.7817 8.12665 74.9077 8.40552Z" fill="white"/>
<path id="Vector_4" d="M57.794 7.689H33.2926C32.7953 7.68977 32.3185 7.92791 31.9669 8.35119C31.6152 8.77448 31.4174 9.34835 31.4167 9.94697V24.7248H35.1875C35.4633 24.7239 35.7347 24.8077 35.976 24.9684C36.2174 25.129 36.4207 25.3611 36.5667 25.6428L37.8736 28.1471L39.1233 30.5397L39.3579 30.9896L40.7876 33.7271L40.804 33.7583H59.6698V9.94696C59.6691 9.34835 59.4713 8.77448 59.1196 8.35119C58.768 7.92791 58.2913 7.68977 57.794 7.689Z" fill="#CCCCCC"/>
<path id="Vector_5" d="M48.082 12.2066H35.9417C35.6199 12.2066 35.3113 12.3605 35.0837 12.6344C34.8561 12.9083 34.7283 13.2799 34.7283 13.6673C34.7283 14.0547 34.8561 14.4262 35.0837 14.7002C35.3113 14.9741 35.6199 15.128 35.9417 15.128H48.082C48.4038 15.128 48.7125 14.9741 48.94 14.7002C49.1676 14.4262 49.2955 14.0547 49.2955 13.6673C49.2955 13.2799 49.1676 12.9083 48.94 12.6344C48.7125 12.3605 48.4038 12.2066 48.082 12.2066Z" fill="white"/>
<path id="Vector_6" d="M54.8143 19.3795H36.0522C35.7009 19.3795 35.3639 19.5475 35.1155 19.8466C34.8671 20.1456 34.7275 20.5512 34.7275 20.9741C34.7275 21.397 34.8671 21.8026 35.1155 22.1016C35.3639 22.4006 35.7009 22.5686 36.0522 22.5686H54.8143C55.1656 22.5686 55.5025 22.4006 55.751 22.1016C55.9994 21.8026 56.1389 21.397 56.1389 20.9741C56.1389 20.5512 55.9994 20.1456 55.751 19.8466C55.5025 19.5475 55.1656 19.3795 54.8143 19.3795Z" fill="white"/>
<path id="Vector_7" d="M56.012 25.8776C55.9054 25.6034 55.7361 25.3715 55.524 25.2089C55.3119 25.0464 55.0657 24.9599 54.8142 24.9596H36.0521C36.0235 24.9596 35.9962 24.9613 35.9675 24.9629C36.2123 25.1239 36.4186 25.358 36.5664 25.6428L37.8734 28.1471H54.8142C55.037 28.1471 55.2562 28.0795 55.4515 27.9504C55.6467 27.8213 55.8118 27.6349 55.9312 27.4086C56.0507 27.1822 56.1207 26.9232 56.1349 26.6556C56.149 26.3879 56.1067 26.1203 56.012 25.8776Z" fill="white"/>
<path id="Vector_8" d="M56.1253 31.9191C56.0821 31.5373 55.9256 31.1872 55.6845 30.9336C55.4435 30.68 55.1344 30.5401 54.8142 30.5397H39.123L39.3577 30.9896L40.7874 33.7271H54.8142C55.0899 33.7278 55.3587 33.6238 55.5823 33.4299C55.7541 33.2826 55.8941 33.088 55.9907 32.8623C56.0873 32.6366 56.1376 32.3864 56.1376 32.1326C56.1377 32.0611 56.1336 31.9898 56.1253 31.9191Z" fill="white"/>
<path id="Vector_9" d="M71.1017 20.4157L69.1918 19.5175L59.6696 15.0442L48.2769 9.69241C47.8132 9.47579 47.297 9.48932 46.8416 9.73004C46.3862 9.97076 46.0286 10.419 45.8472 10.9766L45.4489 12.2066L44.5008 15.128L43.1229 19.3795L42.0888 22.5686L41.3139 24.9596L40.2798 28.147L39.5036 30.5397L39.4818 30.6086L39.3577 30.9896L40.7874 33.7271L40.8038 33.7583H67.2846C67.5277 33.758 67.7677 33.8234 67.9871 33.9496C68.2064 34.0758 68.3994 34.2596 68.552 34.4874L68.6638 34.1459L70.0308 29.9321L72.1671 23.3421C72.3475 22.7839 72.3366 22.1624 72.1369 21.6138C71.9372 21.0653 71.5649 20.6344 71.1017 20.4157Z" fill="#F9A826"/>
<path id="Vector_10" d="M60.6901 20.373L59.6697 19.8935L49.3808 15.0606C49.0807 14.9209 48.747 14.9296 48.4523 15.085C48.1576 15.2404 47.9259 15.5297 47.8078 15.8899C47.6915 16.2513 47.6988 16.6533 47.8282 17.0082C47.9576 17.363 48.1984 17.6417 48.4981 17.7833L51.8964 19.3795L56.0995 21.3534L59.6697 23.0317L59.8075 23.0957C60.1073 23.2359 60.441 23.227 60.7354 23.0712C61.0298 22.9154 61.2608 22.6254 61.3778 22.2647C61.4947 21.9041 61.4879 21.5023 61.359 21.1477C61.2301 20.793 60.9895 20.5144 60.6901 20.373Z" fill="white"/>
<path id="Vector_11" d="M64.7936 30.0027L59.6696 27.5953L56.0121 25.8776L54.0585 24.9596L48.97 22.5686L47.3165 21.7919C47.0081 21.6469 46.6657 21.6463 46.3569 21.79C46.0481 21.9338 45.7952 22.2116 45.6481 22.5686C45.6318 22.6097 45.6154 22.6524 45.6017 22.6967C45.5385 22.8917 45.5077 23.0997 45.5113 23.309C45.5148 23.5182 45.5526 23.7246 45.6224 23.9162C45.6922 24.1079 45.7927 24.2812 45.9181 24.4261C46.0435 24.571 46.1915 24.6848 46.3534 24.7609L46.7763 24.9596L53.5592 28.1471L59.6696 31.0176L63.8304 32.9734C63.9835 33.0453 64.1463 33.0821 64.3106 33.0818C64.6196 33.0824 64.919 32.953 65.1571 32.7159C65.3951 32.4788 65.5568 32.149 65.6141 31.7836C65.6714 31.4181 65.6208 31.0401 65.4709 30.7148C65.3211 30.3896 65.0815 30.1377 64.7936 30.0027Z" fill="white"/>
<path id="Vector_12" d="M59.6695 33.5843L59.3407 33.4299L56.1253 31.9191L53.1881 30.5397L48.0941 28.1471L45.6303 26.9893C45.4682 26.913 45.2952 26.8759 45.1212 26.8801C44.9472 26.8843 44.7755 26.9298 44.6161 27.0139C44.4567 27.098 44.3126 27.2191 44.1921 27.3703C44.0716 27.5215 43.9771 27.6998 43.9139 27.8951C43.8507 28.0903 43.8201 28.2986 43.8238 28.5081C43.8275 28.7175 43.8655 28.9241 43.9356 29.1159C44.0057 29.3076 44.1065 29.4809 44.2323 29.6258C44.358 29.7706 44.5063 29.8842 44.6686 29.96L45.9018 30.5397L52.0544 33.4299L52.6874 33.7271L52.7529 33.7583H60.0392L59.6695 33.5843Z" fill="white"/>
<path id="Vector_13" d="M47.2239 33.7271L46.5909 33.4299L43.9457 32.1868C43.7609 32.0996 43.5621 32.0637 43.3642 32.0816C43.1663 32.0995 42.9743 32.1708 42.8024 32.2902C42.6305 32.4096 42.4831 32.574 42.3711 32.7713C42.2592 32.9686 42.1856 33.1937 42.1558 33.4299C42.1427 33.5281 42.1377 33.6277 42.1408 33.7271C42.1405 33.7375 42.141 33.748 42.1422 33.7583H47.2907L47.2239 33.7271Z" fill="white"/>
<path id="Vector_14" d="M52.6875 33.7271L52.0545 33.4299H42.1557C42.1426 33.5281 42.1376 33.6277 42.1407 33.7271H40.7874L40.8038 33.7583H52.753L52.6875 33.7271ZM52.6875 33.7271H40.7874L40.8038 33.7583H52.753L52.6875 33.7271ZM52.6875 33.7271H40.7874L40.8038 33.7583H52.753L52.6875 33.7271ZM52.753 33.7583L52.6875 33.7271H40.7874L40.8038 33.7583H52.753ZM28.8778 66.6426C28.446 66.6419 28.0321 66.435 27.7267 66.0675C27.4214 65.7 27.2496 65.2017 27.2489 64.6819V26.6872C27.2493 26.1671 27.421 25.6685 27.7263 25.3006C28.0317 24.9328 28.4458 24.7257 28.8778 24.7248H31.4166V24.3964H28.8778C28.3735 24.3975 27.8901 24.6393 27.5336 25.0687C27.1772 25.4981 26.9767 26.0801 26.9761 26.6872V64.6819C26.9765 65.1211 27.0818 65.5508 27.2794 65.92C27.477 66.2892 27.7586 66.5822 28.0906 66.7642H52.1254C52.1036 66.7248 52.0818 66.6837 52.0599 66.6426H28.8778ZM68.6639 34.1459C68.4867 33.9196 68.2729 33.7393 68.0358 33.6162C67.7986 33.4931 67.543 33.4297 67.2846 33.4299H40.9552L39.4819 30.6087L39.4464 30.5397L38.1968 28.1471L36.7971 25.4671C36.6255 25.1397 36.388 24.8698 36.1065 24.6826C35.8251 24.4954 35.5089 24.397 35.1873 24.3964H28.8778C28.3735 24.3975 27.8901 24.6393 27.5336 25.0687C27.1772 25.4981 26.9767 26.0801 26.9761 26.6872V64.6819C26.9765 65.1211 27.0818 65.5508 27.2794 65.92C27.477 66.2892 27.7586 66.5822 28.0906 66.7642C28.3375 66.901 28.6061 66.9716 28.8778 66.9711H67.2846C67.5568 66.9716 67.8259 66.901 68.0732 66.7642C68.4052 66.5822 68.6868 66.2892 68.8844 65.92C69.082 65.5508 69.1873 65.1211 69.1878 64.6819V35.7207C69.1881 35.1342 69.0004 34.57 68.6639 34.1459ZM68.9149 64.6819C68.9142 65.2019 68.7421 65.7004 68.4365 66.068C68.1309 66.4355 67.7167 66.6422 67.2846 66.6426H28.8778C28.446 66.6419 28.0321 66.435 27.7267 66.0675C27.4214 65.7 27.2496 65.2017 27.2489 64.6819V26.6872C27.2493 26.1671 27.421 25.6685 27.7263 25.3006C28.0317 24.9328 28.4458 24.7257 28.8778 24.7248H35.1873C35.4631 24.7239 35.7345 24.8077 35.9759 24.9684C36.2172 25.129 36.4205 25.3611 36.5665 25.6428L37.8734 28.1471L39.1231 30.5397L39.3577 30.9896L40.7874 33.7271L40.8038 33.7583L67.2846 33.7583C67.7169 33.7588 68.1314 33.9657 68.437 34.3336C68.7427 34.7015 68.9145 35.2004 68.9149 35.7207V64.6819ZM52.6875 33.7271H40.7874L40.8038 33.7583H52.753L52.6875 33.7271ZM52.6875 33.7271H40.7874L40.8038 33.7583H52.753L52.6875 33.7271ZM52.6875 33.7271H40.7874L40.8038 33.7583H52.753L52.6875 33.7271ZM52.6875 33.7271L52.0545 33.4299H40.9552L39.4819 30.6087L39.3577 30.9896L40.7874 33.7271L40.8038 33.7583H52.753L52.6875 33.7271Z" fill="#3F3D56"/>
<path id="Vector_15" d="M21.4084 47.3491L20.627 49.3158L13.9536 46.6236L15.1068 43.7211L21.4084 47.3491Z" fill="#FFCDB8"/>
<path id="Vector_16" d="M19.5296 50.6343L21.1092 46.659L23.093 47.8012L20.6371 53.9819L20.4854 53.8945C19.9995 53.6148 19.6259 53.1141 19.4466 52.5027C19.2673 51.8913 19.2972 51.2192 19.5296 50.6343Z" fill="#2F2E41"/>
<path id="Vector_17" d="M22.9816 64.9112L21.1717 64.8377L21.0955 56.3569L23.2172 56.5076L22.9816 64.9112Z" fill="#FFCDB8"/>
<path id="Vector_18" d="M19.7282 64.1558L23.3869 64.3045L23.3127 66.9501L17.6243 66.7189L17.63 66.5166C17.6481 65.8686 17.8794 65.2559 18.2729 64.8131C18.6664 64.3704 19.1899 64.134 19.7282 64.1558Z" fill="#2F2E41"/>
<path id="Vector_19" d="M25.8963 29.4181C25.8963 29.4181 20.3569 27.7289 17.8457 30.2183L16.4424 35.1082L10.8291 44.7101L18.9536 50.5779L20.4308 46.1326L16.8855 43.9988L21.1693 39.5535L20.4308 63.0248L23.2374 63.5583C23.2374 63.5583 29.4415 34.5747 25.8963 29.4181Z" fill="#2F2E41"/>
<path id="Vector_20" d="M17.4922 30.9415L17.5597 30.7971C18.2714 29.274 18.1561 26.7938 17.934 24.9815C17.7481 23.4635 17.7536 20.7883 17.7911 18.8113C17.8003 18.144 17.998 17.5004 18.3517 16.9864C18.7053 16.4724 19.1937 16.1186 19.7367 15.9833C21.4218 15.5612 23.4906 15.4718 24.5738 15.456C24.8682 15.4546 25.1512 15.5921 25.3623 15.839C25.5733 16.0859 25.6956 16.4226 25.7028 16.7767C25.7357 18.9056 25.7255 22.7878 25.2866 24.8707C24.6352 27.9621 25.6538 30.0629 25.6642 30.0837L25.7256 30.2074L17.4922 30.9415Z" fill="#F9A826"/>
<path id="Vector_21" d="M14.6427 39.4673C14.823 39.3633 14.9822 39.213 15.1091 39.027C15.2359 38.841 15.3273 38.6237 15.3769 38.3906C15.4265 38.1574 15.433 37.914 15.3959 37.6775C15.3589 37.441 15.2792 37.2172 15.1625 37.0217L18.2887 20.7942H15.9253L13.1662 36.7019C12.9065 36.9596 12.7343 37.3231 12.6823 37.7234C12.6303 38.1237 12.7021 38.5331 12.8841 38.874C13.0661 39.2149 13.3456 39.4635 13.6697 39.5729C13.9939 39.6822 14.34 39.6446 14.6427 39.4673Z" fill="#FFCDB8"/>
<path id="Vector_22" d="M33.6514 23.4937L28.4343 17.5531L27.0243 19.9294L30.5493 23.6634L25.9264 28.0826C25.893 28.0798 25.8597 28.0765 25.8257 28.0765C25.5412 28.0761 25.2627 28.1744 25.0234 28.3597C24.7842 28.5449 24.5943 28.8092 24.4765 29.1209C24.3588 29.4326 24.3181 29.7786 24.3594 30.1174C24.4007 30.4562 24.5223 30.7735 24.7095 31.0314C24.8967 31.2892 25.1416 31.4767 25.415 31.5713C25.6884 31.666 25.9787 31.6639 26.2511 31.5652C26.5235 31.4664 26.7665 31.2754 26.951 31.0147C27.1356 30.7541 27.2538 30.435 27.2917 30.0957L27.3063 30.1132L33.6514 23.4937Z" fill="#FFCDB8"/>
<path id="Vector_23" d="M19.4047 16.1919C19.4047 16.1919 16.1468 15.5487 15.8514 18.5715C15.5559 21.5943 15.4082 21.5943 15.4082 21.5943C15.4082 21.5943 17.7717 21.0609 18.3626 21.7722C18.9534 22.4834 19.4047 16.1919 19.4047 16.1919Z" fill="#F9A826"/>
<path id="Vector_24" d="M24.2712 15.7265C24.2712 15.7265 26.9302 15.1931 28.1119 16.6156C29.2936 18.0381 29.8845 18.3937 29.8845 18.3937C29.8845 18.3937 27.2256 20.1719 28.2596 21.7722C28.2596 21.7722 25.453 20.1719 25.0098 20.7053C24.5667 21.2387 24.2712 15.7265 24.2712 15.7265Z" fill="#F9A826"/>
<path id="Vector_25" d="M21.9392 5.40307C21.1005 4.59677 20.8801 3.04061 21.3668 1.88897C21.8534 0.73732 22.9536 0.0434878 24.0261 0.095303C25.0986 0.147118 26.1092 0.888318 26.7305 1.94189C27.6034 3.42187 27.7865 5.47883 28.9471 6.63749C29.9954 7.68399 31.497 7.65402 32.8572 7.57077C33.3156 7.5427 33.7889 7.51017 34.2003 7.26496C34.6117 7.01976 34.9479 6.50261 34.8948 5.95371C35.2365 6.60481 35.0383 7.51771 34.5799 8.05493C34.1214 8.59216 33.4687 8.81722 32.8333 8.90684C31.7122 9.04868 30.5798 8.83657 29.5476 8.29139C28.5153 7.74622 27.6189 6.88679 26.9465 5.79775C26.4732 5.0119 26.108 4.09681 25.4586 3.52146C24.8093 2.9461 23.7265 2.90605 23.3279 3.74971C23.1307 4.16699 23.1501 4.69039 22.9688 5.11795C22.7874 5.54551 22.1987 5.77605 22.0241 5.34445" fill="#2F2E41"/>
<path id="Vector_26" d="M21.8109 13.978C24.0712 13.978 25.9036 11.7723 25.9036 9.05152C25.9036 6.33069 24.0712 4.12503 21.8109 4.12503C19.5506 4.12503 17.7183 6.33069 17.7183 9.05152C17.7183 11.7723 19.5506 13.978 21.8109 13.978Z" fill="#2F2E41"/>
<path id="Vector_27" d="M21.7862 14.3636C23.6367 14.3636 25.1369 12.5579 25.1369 10.3303C25.1369 8.10278 23.6367 6.297 21.7862 6.297C19.9357 6.297 18.4355 8.10278 18.4355 10.3303C18.4355 12.5579 19.9357 14.3636 21.7862 14.3636Z" fill="#FFCDB8"/>
<path id="Vector_28" d="M18.7312 7.3681C19.1866 7.488 19.0376 8.40753 19.3974 8.76421C19.722 9.08595 20.1895 8.75507 20.598 8.63529C21.1138 8.48406 21.6536 8.70559 22.1298 8.98802C22.606 9.27045 23.0652 9.62095 23.5847 9.75252C24.1042 9.8841 24.7201 9.7358 25.0113 9.20151C25.2897 8.69064 25.1872 8.00173 24.9694 7.44986C24.6985 6.76368 24.2735 6.18253 23.7423 5.77223C23.2112 5.36193 22.5952 5.13888 21.9641 5.12835C21.3331 5.11782 20.7122 5.32024 20.1718 5.71266C19.6314 6.10509 19.1931 6.67184 18.9065 7.34872" fill="#2F2E41"/>
<path id="Vector_29" d="M97.6782 66.9284C97.678 66.9719 97.6636 67.0136 97.6381 67.0444C97.6125 67.0751 97.5779 67.0925 97.5417 67.0926H0.136422C0.100241 67.0926 0.0655411 67.0753 0.039957 67.0445C0.0143729 67.0137 0 66.9719 0 66.9284C0 66.8848 0.0143729 66.8431 0.039957 66.8123C0.0655411 66.7815 0.100241 66.7642 0.136422 66.7642H97.5417C97.5779 66.7643 97.6125 66.7816 97.6381 66.8124C97.6636 66.8432 97.678 66.8849 97.6782 66.9284Z" fill="#3F3D56"/>
</g>
<defs>
<clipPath id="clip0_106_94">
<rect width="106" height="67" fill="white" transform="translate(0 0.0925903)"/>
</clipPath>
</defs>
</svg>
