<svg width="30" height="42" viewBox="0 0 30 42" fill="none" xmlns="http://www.w3.org/2000/svg">
<circle cx="15" cy="15" r="15" fill="white"/>
<path d="M10.6965 14.252L8.93824 14.5693C8.879 14.2181 8.74358 13.9536 8.53199 13.7759C8.32464 13.5981 8.0538 13.5093 7.71949 13.5093C7.27516 13.5093 6.91969 13.6637 6.65309 13.9727C6.39072 14.2773 6.25953 14.7894 6.25953 15.5088C6.25953 16.3086 6.39283 16.8735 6.65943 17.2036C6.93027 17.5337 7.29208 17.6987 7.74488 17.6987C8.08342 17.6987 8.36061 17.6035 8.57643 17.4131C8.79225 17.2184 8.94459 16.8862 9.03346 16.4165L10.7854 16.7148C10.6034 17.5189 10.2543 18.1261 9.73805 18.5366C9.22177 18.9471 8.52988 19.1523 7.66236 19.1523C6.67636 19.1523 5.88925 18.8413 5.30103 18.2192C4.71705 17.5972 4.42506 16.736 4.42506 15.6357C4.42506 14.5228 4.71917 13.6574 5.30738 13.0396C5.8956 12.4175 6.69117 12.1064 7.6941 12.1064C8.51506 12.1064 9.16676 12.2842 9.64918 12.6396C10.1358 12.9909 10.485 13.5283 10.6965 14.252ZM11.6865 17.0767L13.4766 16.8037C13.5527 17.1507 13.7072 17.4152 13.9399 17.5972C14.1727 17.7749 14.4985 17.8638 14.9175 17.8638C15.3787 17.8638 15.7257 17.7791 15.9585 17.6099C16.1151 17.4914 16.1934 17.3327 16.1934 17.1338C16.1934 16.9984 16.151 16.8862 16.0664 16.7974C15.9775 16.7127 15.7786 16.6344 15.4697 16.5625C14.0309 16.2451 13.119 15.9552 12.7339 15.6929C12.2007 15.3289 11.9341 14.8232 11.9341 14.1758C11.9341 13.5918 12.1647 13.1009 12.626 12.7031C13.0872 12.3053 13.8024 12.1064 14.7715 12.1064C15.694 12.1064 16.3796 12.2567 16.8281 12.5571C17.2767 12.8576 17.5856 13.3019 17.7549 13.8901L16.0728 14.2012C16.0008 13.9388 15.8633 13.7378 15.6602 13.5981C15.4613 13.4585 15.1756 13.3887 14.8032 13.3887C14.3335 13.3887 13.9971 13.4543 13.7939 13.5854C13.6585 13.6785 13.5908 13.7992 13.5908 13.9473C13.5908 14.0742 13.6501 14.1821 13.7686 14.271C13.9294 14.3895 14.4837 14.5566 15.4316 14.7725C16.3838 14.9883 17.0482 15.2528 17.4248 15.5659C17.7972 15.8833 17.9834 16.3255 17.9834 16.8926C17.9834 17.5104 17.7253 18.0415 17.209 18.4858C16.6927 18.9302 15.9289 19.1523 14.9175 19.1523C13.9992 19.1523 13.2713 18.9661 12.7339 18.5938C12.2007 18.2214 11.8516 17.7157 11.6865 17.0767ZM19.1829 17.0767L20.9729 16.8037C21.0491 17.1507 21.2035 17.4152 21.4363 17.5972C21.669 17.7749 21.9949 17.8638 22.4138 17.8638C22.8751 17.8638 23.2221 17.7791 23.4548 17.6099C23.6114 17.4914 23.6897 17.3327 23.6897 17.1338C23.6897 16.9984 23.6474 16.8862 23.5627 16.7974C23.4739 16.7127 23.275 16.6344 22.9661 16.5625C21.5273 16.2451 20.6153 15.9552 20.2302 15.6929C19.697 15.3289 19.4304 14.8232 19.4304 14.1758C19.4304 13.5918 19.661 13.1009 20.1223 12.7031C20.5836 12.3053 21.2987 12.1064 22.2678 12.1064C23.1903 12.1064 23.8759 12.2567 24.3245 12.5571C24.773 12.8576 25.0819 13.3019 25.2512 13.8901L23.5691 14.2012C23.4971 13.9388 23.3596 13.7378 23.1565 13.5981C22.9576 13.4585 22.6719 13.3887 22.2996 13.3887C21.8298 13.3887 21.4934 13.4543 21.2903 13.5854C21.1549 13.6785 21.0871 13.7992 21.0871 13.9473C21.0871 14.0742 21.1464 14.1821 21.2649 14.271C21.4257 14.3895 21.9801 14.5566 22.928 14.7725C23.8801 14.9883 24.5445 15.2528 24.9211 15.5659C25.2935 15.8833 25.4797 16.3255 25.4797 16.8926C25.4797 17.5104 25.2216 18.0415 24.7053 18.4858C24.189 18.9302 23.4252 19.1523 22.4138 19.1523C21.4955 19.1523 20.7676 18.9661 20.2302 18.5938C19.697 18.2214 19.3479 17.7157 19.1829 17.0767Z" fill="black"/>
<path d="M11.665 41.07C11.2483 41.07 10.9167 40.95 10.67 40.71C10.4233 40.4667 10.3 40.1133 10.3 39.65V38.85C10.3 38.3867 10.4233 38.035 10.67 37.795C10.9167 37.5517 11.2483 37.43 11.665 37.43C12.0783 37.43 12.395 37.545 12.615 37.775C12.8383 38.005 12.95 38.32 12.95 38.72V38.745H12.535V38.705C12.535 38.4417 12.4633 38.2267 12.32 38.06C12.18 37.89 11.9617 37.805 11.665 37.805C11.3683 37.805 11.1367 37.8967 10.97 38.08C10.8033 38.26 10.72 38.5133 10.72 38.84V39.66C10.72 39.9867 10.8033 40.2417 10.97 40.425C11.1367 40.605 11.3683 40.695 11.665 40.695C11.9617 40.695 12.18 40.6117 12.32 40.445C12.4633 40.275 12.535 40.0583 12.535 39.795V39.715H12.95V39.78C12.95 40.18 12.8383 40.495 12.615 40.725C12.395 40.955 12.0783 41.07 11.665 41.07ZM14.873 41.07C14.6197 41.07 14.393 41.025 14.193 40.935C13.993 40.845 13.8347 40.71 13.718 40.53C13.6047 40.3467 13.548 40.1183 13.548 39.845V39.74H13.963V39.845C13.963 40.135 14.048 40.3517 14.218 40.495C14.388 40.635 14.6063 40.705 14.873 40.705C15.1463 40.705 15.3547 40.6433 15.498 40.52C15.6413 40.3967 15.713 40.2417 15.713 40.055C15.713 39.925 15.6797 39.8217 15.613 39.745C15.5497 39.6683 15.4597 39.6067 15.343 39.56C15.2263 39.51 15.0897 39.4667 14.933 39.43L14.673 39.365C14.4697 39.3117 14.2897 39.2467 14.133 39.17C13.9763 39.0933 13.853 38.9933 13.763 38.87C13.6763 38.7433 13.633 38.5817 13.633 38.385C13.633 38.1883 13.6813 38.0183 13.778 37.875C13.878 37.7317 14.0163 37.6217 14.193 37.545C14.373 37.4683 14.5797 37.43 14.813 37.43C15.0497 37.43 15.2613 37.4717 15.448 37.555C15.638 37.635 15.7863 37.755 15.893 37.915C16.003 38.0717 16.058 38.27 16.058 38.51V38.72H15.643V38.51C15.643 38.34 15.6063 38.2033 15.533 38.1C15.463 37.9967 15.3647 37.92 15.238 37.87C15.1147 37.82 14.973 37.795 14.813 37.795C14.583 37.795 14.398 37.8467 14.258 37.95C14.118 38.05 14.048 38.1933 14.048 38.38C14.048 38.5033 14.078 38.6033 14.138 38.68C14.198 38.7567 14.283 38.82 14.393 38.87C14.503 38.9167 14.6347 38.9583 14.788 38.995L15.048 39.06C15.2513 39.1033 15.433 39.1633 15.593 39.24C15.7563 39.3133 15.8863 39.415 15.983 39.545C16.0797 39.6717 16.128 39.8383 16.128 40.045C16.128 40.2517 16.0763 40.4317 15.973 40.585C15.8697 40.7383 15.723 40.8583 15.533 40.945C15.3463 41.0283 15.1263 41.07 14.873 41.07ZM18.0394 41.07C17.7861 41.07 17.5594 41.025 17.3594 40.935C17.1594 40.845 17.0011 40.71 16.8844 40.53C16.7711 40.3467 16.7144 40.1183 16.7144 39.845V39.74H17.1294V39.845C17.1294 40.135 17.2144 40.3517 17.3844 40.495C17.5544 40.635 17.7727 40.705 18.0394 40.705C18.3127 40.705 18.5211 40.6433 18.6644 40.52C18.8077 40.3967 18.8794 40.2417 18.8794 40.055C18.8794 39.925 18.8461 39.8217 18.7794 39.745C18.7161 39.6683 18.6261 39.6067 18.5094 39.56C18.3927 39.51 18.2561 39.4667 18.0994 39.43L17.8394 39.365C17.6361 39.3117 17.4561 39.2467 17.2994 39.17C17.1427 39.0933 17.0194 38.9933 16.9294 38.87C16.8427 38.7433 16.7994 38.5817 16.7994 38.385C16.7994 38.1883 16.8477 38.0183 16.9444 37.875C17.0444 37.7317 17.1827 37.6217 17.3594 37.545C17.5394 37.4683 17.7461 37.43 17.9794 37.43C18.2161 37.43 18.4277 37.4717 18.6144 37.555C18.8044 37.635 18.9527 37.755 19.0594 37.915C19.1694 38.0717 19.2244 38.27 19.2244 38.51V38.72H18.8094V38.51C18.8094 38.34 18.7727 38.2033 18.6994 38.1C18.6294 37.9967 18.5311 37.92 18.4044 37.87C18.2811 37.82 18.1394 37.795 17.9794 37.795C17.7494 37.795 17.5644 37.8467 17.4244 37.95C17.2844 38.05 17.2144 38.1933 17.2144 38.38C17.2144 38.5033 17.2444 38.6033 17.3044 38.68C17.3644 38.7567 17.4494 38.82 17.5594 38.87C17.6694 38.9167 17.8011 38.9583 17.9544 38.995L18.2144 39.06C18.4177 39.1033 18.5994 39.1633 18.7594 39.24C18.9227 39.3133 19.0527 39.415 19.1494 39.545C19.2461 39.6717 19.2944 39.8383 19.2944 40.045C19.2944 40.2517 19.2427 40.4317 19.1394 40.585C19.0361 40.7383 18.8894 40.8583 18.6994 40.945C18.5127 41.0283 18.2927 41.07 18.0394 41.07Z" fill="white"/>
</svg>
