<svg width="30" height="42" viewBox="0 0 30 42" fill="none" xmlns="http://www.w3.org/2000/svg">
<circle cx="15" cy="15" r="15" fill="white"/>
<path d="M25 21.4969C24.2725 21.6819 23.8225 21.505 23.4187 20.8987L20.5475 16.9262L20.1325 16.3762L16.7794 20.9119C16.3962 21.4575 15.9944 21.695 15.2794 21.5019L19.5731 15.7381L15.5756 10.5319C16.2631 10.3981 16.7381 10.4662 17.16 11.0819L20.1381 15.1037L23.1381 11.1037C23.5225 10.5581 23.9356 10.3506 24.6256 10.5519L23.0756 12.6069L20.9756 15.3412C20.7256 15.6537 20.76 15.8675 20.99 16.1694L25 21.4969ZM5.005 15.6419L5.35625 13.9144C6.3125 10.4956 10.2313 9.07499 12.9338 11.1875C14.5131 12.43 14.9056 14.1875 14.8275 16.1562H5.925C5.79125 19.7 8.34188 21.8387 11.5938 20.7475C12.7344 20.3644 13.4062 19.4712 13.7425 18.3537C13.9131 17.7937 14.1956 17.7062 14.7219 17.8662C14.4531 19.2637 13.8469 20.4312 12.5656 21.1619C10.6512 22.2556 7.91875 21.9019 6.48125 20.3819C5.625 19.5 5.27125 18.3825 5.1125 17.1875C5.0875 16.99 5.0375 16.8019 5 16.6125C5.00333 16.2892 5.005 15.9658 5.005 15.6425V15.6419ZM5.94125 15.4044H13.9862C13.9338 12.8419 12.3381 11.0219 10.1575 11.0062C7.76375 10.9875 6.045 12.7644 5.94125 15.4044Z" fill="black"/>
<path d="M6.4 41V37.5H8.555V37.88H6.82V39.05H8.415V39.43H6.82V40.62H8.58V41H6.4ZM9.13238 41L10.1124 39.76L9.16238 38.555H9.63738L10.3674 39.5H10.4374L11.1624 38.555H11.6424L10.6874 39.76L11.6674 41H11.1874L10.4374 40.025H10.3674L9.61738 41H9.13238ZM12.3962 42V38.555H12.7812V38.96H12.8512C12.9146 38.8367 13.0162 38.7267 13.1562 38.63C13.2996 38.5333 13.4979 38.485 13.7512 38.485C13.9612 38.485 14.1529 38.5367 14.3262 38.64C14.5029 38.74 14.6429 38.8833 14.7462 39.07C14.8529 39.2567 14.9062 39.4817 14.9062 39.745V39.81C14.9062 40.07 14.8546 40.295 14.7512 40.485C14.6479 40.675 14.5079 40.82 14.3312 40.92C14.1579 41.02 13.9646 41.07 13.7512 41.07C13.5812 41.07 13.4362 41.0467 13.3162 41C13.1996 40.9567 13.1046 40.9 13.0312 40.83C12.9579 40.76 12.9012 40.6883 12.8612 40.615H12.7912V42H12.3962ZM13.6462 40.72C13.8996 40.72 14.1046 40.64 14.2612 40.48C14.4212 40.3167 14.5012 40.09 14.5012 39.8V39.755C14.5012 39.465 14.4212 39.24 14.2612 39.08C14.1046 38.9167 13.8996 38.835 13.6462 38.835C13.3962 38.835 13.1896 38.9167 13.0262 39.08C12.8662 39.24 12.7862 39.465 12.7862 39.755V39.8C12.7862 40.09 12.8662 40.3167 13.0262 40.48C13.1896 40.64 13.3962 40.72 13.6462 40.72ZM15.714 41V38.555H16.099V38.855H16.169C16.2124 38.7483 16.279 38.67 16.369 38.62C16.459 38.57 16.5774 38.545 16.724 38.545H17.014V38.905H16.699C16.5224 38.905 16.379 38.955 16.269 39.055C16.1624 39.1517 16.109 39.3033 16.109 39.51V41H15.714ZM18.7309 41.07C18.4842 41.07 18.2676 41.0183 18.0809 40.915C17.8942 40.8083 17.7492 40.66 17.6459 40.47C17.5426 40.28 17.4909 40.06 17.4909 39.81V39.75C17.4909 39.4967 17.5426 39.275 17.6459 39.085C17.7492 38.895 17.8926 38.7483 18.0759 38.645C18.2592 38.5383 18.4692 38.485 18.7059 38.485C18.9359 38.485 19.1392 38.535 19.3159 38.635C19.4926 38.7317 19.6309 38.8717 19.7309 39.055C19.8309 39.2383 19.8809 39.4533 19.8809 39.7V39.88H17.8859C17.8959 40.1433 17.9809 40.35 18.1409 40.5C18.3009 40.6467 18.5009 40.72 18.7409 40.72C18.9509 40.72 19.1126 40.6717 19.2259 40.575C19.3392 40.4783 19.4259 40.3633 19.4859 40.23L19.8259 40.395C19.7759 40.4983 19.7059 40.6017 19.6159 40.705C19.5292 40.8083 19.4142 40.895 19.2709 40.965C19.1309 41.035 18.9509 41.07 18.7309 41.07ZM17.8909 39.555H19.4809C19.4676 39.3283 19.3892 39.1517 19.2459 39.025C19.1059 38.8983 18.9259 38.835 18.7059 38.835C18.4826 38.835 18.2992 38.8983 18.1559 39.025C18.0126 39.1517 17.9242 39.3283 17.8909 39.555ZM21.6549 41.07C21.3515 41.07 21.0949 41 20.8849 40.86C20.6782 40.72 20.5532 40.4983 20.5099 40.195L20.8849 40.11C20.9115 40.27 20.9615 40.3967 21.0349 40.49C21.1082 40.58 21.1982 40.645 21.3049 40.685C21.4149 40.7217 21.5315 40.74 21.6549 40.74C21.8382 40.74 21.9832 40.7033 22.0899 40.63C22.1965 40.5567 22.2499 40.4583 22.2499 40.335C22.2499 40.2083 22.1982 40.12 22.0949 40.07C21.9949 40.0167 21.8565 39.9733 21.6799 39.94L21.4749 39.905C21.3182 39.8783 21.1749 39.8367 21.0449 39.78C20.9149 39.7233 20.8115 39.6467 20.7349 39.55C20.6582 39.4533 20.6199 39.3317 20.6199 39.185C20.6199 38.965 20.7049 38.7933 20.8749 38.67C21.0449 38.5467 21.2699 38.485 21.5499 38.485C21.8265 38.485 22.0499 38.5483 22.2199 38.675C22.3932 38.7983 22.5049 38.9733 22.5549 39.2L22.1849 39.295C22.1549 39.1183 22.0832 38.995 21.9699 38.925C21.8565 38.8517 21.7165 38.815 21.5499 38.815C21.3832 38.815 21.2515 38.8467 21.1549 38.91C21.0582 38.97 21.0099 39.06 21.0099 39.18C21.0099 39.2967 21.0549 39.3833 21.1449 39.44C21.2382 39.4933 21.3615 39.5333 21.5149 39.56L21.7199 39.595C21.8932 39.625 22.0482 39.6667 22.1849 39.72C22.3249 39.77 22.4349 39.8433 22.5149 39.94C22.5982 40.0367 22.6399 40.1633 22.6399 40.32C22.6399 40.56 22.5499 40.745 22.3699 40.875C22.1932 41.005 21.9549 41.07 21.6549 41.07ZM24.3916 41.07C24.0883 41.07 23.8316 41 23.6216 40.86C23.4149 40.72 23.2899 40.4983 23.2466 40.195L23.6216 40.11C23.6483 40.27 23.6983 40.3967 23.7716 40.49C23.8449 40.58 23.9349 40.645 24.0416 40.685C24.1516 40.7217 24.2683 40.74 24.3916 40.74C24.5749 40.74 24.7199 40.7033 24.8266 40.63C24.9333 40.5567 24.9866 40.4583 24.9866 40.335C24.9866 40.2083 24.9349 40.12 24.8316 40.07C24.7316 40.0167 24.5933 39.9733 24.4166 39.94L24.2116 39.905C24.0549 39.8783 23.9116 39.8367 23.7816 39.78C23.6516 39.7233 23.5483 39.6467 23.4716 39.55C23.3949 39.4533 23.3566 39.3317 23.3566 39.185C23.3566 38.965 23.4416 38.7933 23.6116 38.67C23.7816 38.5467 24.0066 38.485 24.2866 38.485C24.5633 38.485 24.7866 38.5483 24.9566 38.675C25.1299 38.7983 25.2416 38.9733 25.2916 39.2L24.9216 39.295C24.8916 39.1183 24.8199 38.995 24.7066 38.925C24.5933 38.8517 24.4533 38.815 24.2866 38.815C24.1199 38.815 23.9883 38.8467 23.8916 38.91C23.7949 38.97 23.7466 39.06 23.7466 39.18C23.7466 39.2967 23.7916 39.3833 23.8816 39.44C23.9749 39.4933 24.0983 39.5333 24.2516 39.56L24.4566 39.595C24.6299 39.625 24.7849 39.6667 24.9216 39.72C25.0616 39.77 25.1716 39.8433 25.2516 39.94C25.3349 40.0367 25.3766 40.1633 25.3766 40.32C25.3766 40.56 25.2866 40.745 25.1066 40.875C24.9299 41.005 24.6916 41.07 24.3916 41.07Z" fill="white"/>
</svg>
