   <svg width="30" height="42" viewBox="0 0 30 42" fill="none" xmlns="http://www.w3.org/2000/svg">
                <circle cx="15" cy="15" r="15" fill="white" />
                <path d="M11.5396 25.4813C11.8809 25.3344 12.12 24.995 12.12 24.6V22.008C12.12 21.9134 12.1276 21.815 12.1396 21.7152C12.1329 21.7171 12.1267 21.7186 12.12 21.72C12.12 21.72 10.68 21.72 10.392 21.72C9.67196 21.72 9.04796 21.432 8.75996 20.856C8.42396 20.232 8.27996 19.176 7.41596 18.6C7.27196 18.504 7.36796 18.36 7.65596 18.36C7.94396 18.408 8.56796 18.792 8.95196 19.32C9.38396 19.848 9.81596 20.28 10.584 20.28C11.7777 20.28 12.4176 20.22 12.8025 20.0136C13.2508 19.3469 13.8715 18.84 14.52 18.84V18.828C11.7993 18.7406 10.0612 17.8363 9.25196 16.44C7.49276 16.4602 5.96108 16.6344 5.087 16.7794C5.05916 16.6224 5.03516 16.4645 5.01452 16.3056C5.87708 16.1635 7.33916 15.995 9.02012 15.9629C8.96636 15.8304 8.9198 15.6946 8.88044 15.5554C7.19516 15.4699 5.74076 15.5366 4.95068 15.6019C4.94108 15.4426 4.92812 15.2837 4.9262 15.1224C5.71772 15.0576 7.13276 14.9928 8.77484 15.0691C8.73692 14.8291 8.71244 14.5838 8.71244 14.3285C8.71244 13.5125 9.00044 12.6485 9.52844 11.9285C9.28844 11.1125 8.95244 9.38447 9.62444 8.76047C10.9204 8.76047 11.8324 9.38447 12.2644 9.76847C13.08 9.43199 13.992 9.23999 15 9.23999C16.008 9.23999 16.92 9.43199 17.688 9.76799C18.12 9.38399 19.032 8.75999 20.328 8.75999C21.048 9.43199 20.664 11.16 20.424 11.928C20.952 12.648 21.24 13.464 21.192 14.328C21.192 14.5603 21.1704 14.7845 21.1392 15.0043C22.8187 14.9218 24.2721 14.988 25.0771 15.0533C25.0761 15.215 25.0612 15.373 25.0526 15.5328C24.2505 15.4666 22.7606 15.3984 21.0403 15.4901C20.9976 15.6514 20.9457 15.8083 20.8843 15.9605C22.5864 15.9826 24.0835 16.1472 24.9873 16.2912C24.9667 16.4506 24.9427 16.6085 24.9148 16.765C23.9971 16.6181 22.4328 16.4462 20.6529 16.4376C19.8537 17.819 18.1473 18.72 15.48 18.8251V18.84C16.728 18.84 17.88 20.712 17.88 22.008V24.6C17.88 24.995 18.119 25.3344 18.4603 25.4813C22.8576 24.0259 26.04 19.8787 26.04 15C26.04 8.91263 21.0878 3.95999 15 3.95999C8.91212 3.95999 3.95996 8.91263 3.95996 15C3.95996 19.8787 7.14236 24.0259 11.5396 25.4813Z" fill="black" />
                <path d="M7.62 41.07C7.36 41.07 7.13 41.0167 6.93 40.91C6.73333 40.8 6.57833 40.64 6.465 40.43C6.355 40.22 6.3 39.96 6.3 39.65V38.85C6.3 38.3867 6.42333 38.035 6.67 37.795C6.91667 37.5517 7.24833 37.43 7.665 37.43C8.07833 37.43 8.39333 37.5433 8.61 37.77C8.82667 37.9967 8.935 38.3 8.935 38.68V38.705H8.52V38.67C8.52 38.5033 8.49 38.355 8.43 38.225C8.37 38.095 8.27667 37.9933 8.15 37.92C8.02333 37.8433 7.86167 37.805 7.665 37.805C7.36833 37.805 7.13667 37.8967 6.97 38.08C6.80333 38.26 6.72 38.5133 6.72 38.84V39.66C6.72 39.9867 6.80333 40.2417 6.97 40.425C7.13667 40.605 7.37 40.695 7.67 40.695C7.96333 40.695 8.17833 40.6117 8.315 40.445C8.455 40.2783 8.525 40.0567 8.525 39.78V39.695H7.465V39.335H8.935V41H8.555V40.62H8.485C8.44833 40.6933 8.39667 40.765 8.33 40.835C8.26333 40.905 8.17333 40.9617 8.06 41.005C7.94667 41.0483 7.8 41.07 7.62 41.07ZM9.81578 41V38.555H10.2108V41H9.81578ZM10.0158 38.175C9.92911 38.175 9.85578 38.1467 9.79578 38.09C9.73911 38.0333 9.71078 37.9617 9.71078 37.875C9.71078 37.785 9.73911 37.7117 9.79578 37.655C9.85578 37.5983 9.92911 37.57 10.0158 37.57C10.1024 37.57 10.1741 37.5983 10.2308 37.655C10.2874 37.7117 10.3158 37.785 10.3158 37.875C10.3158 37.9617 10.2874 38.0333 10.2308 38.09C10.1741 38.1467 10.1024 38.175 10.0158 38.175ZM12.0414 41C11.9014 41 11.793 40.9617 11.7164 40.885C11.643 40.8083 11.6064 40.7033 11.6064 40.57V38.9H10.8714V38.555H11.6064V37.685H12.0014V38.555H12.8014V38.9H12.0014V40.51C12.0014 40.61 12.0497 40.66 12.1464 40.66H12.6914V41H12.0414ZM13.5262 41V37.5H13.9462V39.055H15.5862V37.5H16.0062V41H15.5862V39.435H13.9462V41H13.5262ZM17.8574 41.045C17.6808 41.045 17.5174 41.0067 17.3674 40.93C17.2208 40.8533 17.1041 40.74 17.0174 40.59C16.9341 40.4367 16.8924 40.2517 16.8924 40.035V38.555H17.2874V40.005C17.2874 40.2483 17.3474 40.425 17.4674 40.535C17.5908 40.645 17.7558 40.7 17.9624 40.7C18.1958 40.7 18.3874 40.6233 18.5374 40.47C18.6874 40.3167 18.7624 40.0883 18.7624 39.785V38.555H19.1574V41H18.7724V40.585H18.7024C18.6491 40.7017 18.5574 40.8083 18.4274 40.905C18.2974 40.9983 18.1074 41.045 17.8574 41.045ZM21.4389 41.07C21.1856 41.07 20.9873 41.0217 20.8439 40.925C20.7039 40.8283 20.6023 40.7183 20.5389 40.595H20.4689V41H20.0839V37.5H20.4789V38.94H20.5489C20.5889 38.8633 20.6456 38.7917 20.7189 38.725C20.7923 38.655 20.8873 38.5983 21.0039 38.555C21.1239 38.5083 21.2689 38.485 21.4389 38.485C21.6523 38.485 21.8456 38.5367 22.0189 38.64C22.1956 38.74 22.3356 38.885 22.4389 39.075C22.5423 39.2617 22.5939 39.485 22.5939 39.745V39.81C22.5939 40.07 22.5406 40.295 22.4339 40.485C22.3306 40.675 22.1906 40.82 22.0139 40.92C21.8406 41.02 21.6489 41.07 21.4389 41.07ZM21.3339 40.72C21.5873 40.72 21.7923 40.64 21.9489 40.48C22.1089 40.3167 22.1889 40.09 22.1889 39.8V39.755C22.1889 39.465 22.1089 39.24 21.9489 39.08C21.7923 38.9167 21.5873 38.835 21.3339 38.835C21.0839 38.835 20.8773 38.9167 20.7139 39.08C20.5539 39.24 20.4739 39.465 20.4739 39.755V39.8C20.4739 40.09 20.5539 40.3167 20.7139 40.48C20.8773 40.64 21.0839 40.72 21.3339 40.72Z" fill="white" />
            </svg>