<svg width="30" height="30" viewBox="0 0 30 30" fill="none" xmlns="http://www.w3.org/2000/svg">
<circle cx="15" cy="15" r="15" fill="white"/>
<path d="M11.5396 25.4813C11.8809 25.3344 12.12 24.995 12.12 24.6V22.008C12.12 21.9134 12.1276 21.815 12.1396 21.7152C12.1329 21.7171 12.1267 21.7186 12.12 21.72C12.12 21.72 10.68 21.72 10.392 21.72C9.67196 21.72 9.04796 21.432 8.75996 20.856C8.42396 20.232 8.27996 19.176 7.41596 18.6C7.27196 18.504 7.36796 18.36 7.65596 18.36C7.94396 18.408 8.56796 18.792 8.95196 19.32C9.38396 19.848 9.81596 20.28 10.584 20.28C11.7777 20.28 12.4176 20.22 12.8025 20.0136C13.2508 19.3469 13.8715 18.84 14.52 18.84V18.828C11.7993 18.7406 10.0612 17.8363 9.25196 16.44C7.49276 16.4602 5.96108 16.6344 5.087 16.7794C5.05916 16.6224 5.03516 16.4645 5.01452 16.3056C5.87708 16.1635 7.33916 15.995 9.02012 15.9629C8.96636 15.8304 8.9198 15.6946 8.88044 15.5554C7.19516 15.4699 5.74076 15.5366 4.95068 15.6019C4.94108 15.4426 4.92812 15.2837 4.9262 15.1224C5.71772 15.0576 7.13276 14.9928 8.77484 15.0691C8.73692 14.8291 8.71244 14.5838 8.71244 14.3285C8.71244 13.5125 9.00044 12.6485 9.52844 11.9285C9.28844 11.1125 8.95244 9.38447 9.62444 8.76047C10.9204 8.76047 11.8324 9.38447 12.2644 9.76847C13.08 9.43199 13.992 9.23999 15 9.23999C16.008 9.23999 16.92 9.43199 17.688 9.76799C18.12 9.38399 19.032 8.75999 20.328 8.75999C21.048 9.43199 20.664 11.16 20.424 11.928C20.952 12.648 21.24 13.464 21.192 14.328C21.192 14.5603 21.1704 14.7845 21.1392 15.0043C22.8187 14.9218 24.2721 14.988 25.0771 15.0533C25.0761 15.215 25.0612 15.373 25.0526 15.5328C24.2505 15.4666 22.7606 15.3984 21.0403 15.4901C20.9976 15.6514 20.9457 15.8083 20.8843 15.9605C22.5864 15.9826 24.0835 16.1472 24.9873 16.2912C24.9667 16.4506 24.9427 16.6085 24.9148 16.765C23.9971 16.6181 22.4328 16.4462 20.6529 16.4376C19.8537 17.819 18.1473 18.72 15.48 18.8251V18.84C16.728 18.84 17.88 20.712 17.88 22.008V24.6C17.88 24.995 18.119 25.3344 18.4603 25.4813C22.8576 24.0259 26.04 19.8787 26.04 15C26.04 8.91263 21.0878 3.95999 15 3.95999C8.91212 3.95999 3.95996 8.91263 3.95996 15C3.95996 19.8787 7.14236 24.0259 11.5396 25.4813Z" fill="black"/>
</svg>
