<svg width="30" height="42" viewBox="0 0 30 42" fill="none" xmlns="http://www.w3.org/2000/svg">
<circle cx="15" cy="15" r="15" fill="white"/>
<path d="M13.9642 15.0419C13.9642 16.824 14.0909 18.3215 13.216 19.2077C12.724 19.7062 11.9475 19.9999 10.9922 19.9999C9.42529 19.9999 8.55529 19.2327 8 18.1711C8.53458 17.828 9.08088 17.4964 9.63768 17.1755C9.86485 17.8141 10.632 18.5319 11.4976 18.09C12.0463 17.8097 11.983 16.9599 11.983 16.0375C11.983 14.1224 11.983 11.9131 11.983 10.1853C11.9812 10.1565 11.9795 10.1278 12.003 10.1243C12.6569 10.1243 13.3106 10.1243 13.9643 10.1243C13.9642 11.6635 13.9642 13.4048 13.9642 15.0419ZM18.9377 13.8837C18.4378 13.6685 17.8164 13.414 17.6641 12.9488C17.4933 12.4274 17.7845 11.9979 18.1088 11.8517C18.8217 11.5299 19.6715 12.0598 19.8475 12.6035C20.384 12.2825 20.9188 11.9596 21.4044 11.5875C20.8338 10.6352 19.9974 9.95344 18.4728 10.0025C17.6333 10.0294 17.0027 10.2958 16.5319 10.6933C16.0724 11.0812 15.7176 11.6255 15.6624 12.4003C15.4973 14.7192 17.2237 15.3111 18.6952 15.9562C19.159 16.1596 19.6746 16.3649 19.888 16.769C20.3281 17.6029 19.5486 18.153 18.8771 18.2119C17.7994 18.3062 17.0728 17.6725 16.6531 17.0129C16.129 17.3395 15.559 17.62 15.0559 17.968C15.7556 19.2046 16.9028 20.0051 18.6952 20C20.5237 19.9948 21.8792 19.1087 21.9905 17.4397C22.1418 15.1712 20.4509 14.5348 18.9377 13.8837Z" fill="black"/>
<path d="M2.315 41.07C1.97167 41.07 1.7 40.9733 1.5 40.78C1.30333 40.5867 1.205 40.31 1.205 39.95V39.68H1.62V39.95C1.62 40.1667 1.67667 40.3433 1.79 40.48C1.90667 40.6167 2.08 40.685 2.31 40.685C2.54333 40.685 2.70833 40.6183 2.805 40.485C2.90167 40.3483 2.95 40.17 2.95 39.95V37.88H2.335V37.5H3.75V37.88H3.37V39.95C3.37 40.3133 3.28 40.5917 3.1 40.785C2.92 40.975 2.65833 41.07 2.315 41.07ZM5.10191 41.07C4.93191 41.07 4.77691 41.04 4.63691 40.98C4.49691 40.92 4.38691 40.8333 4.30691 40.72C4.22691 40.6067 4.18691 40.4683 4.18691 40.305C4.18691 40.1383 4.22691 40.0017 4.30691 39.895C4.38691 39.785 4.49691 39.7033 4.63691 39.65C4.77691 39.5933 4.93358 39.565 5.10691 39.565H5.93191V39.385C5.93191 39.2117 5.88025 39.075 5.77691 38.975C5.67691 38.875 5.52691 38.825 5.32691 38.825C5.13025 38.825 4.97691 38.8733 4.86691 38.97C4.75691 39.0633 4.68191 39.19 4.64191 39.35L4.27191 39.23C4.31191 39.0933 4.37525 38.97 4.46191 38.86C4.54858 38.7467 4.66358 38.6567 4.80691 38.59C4.95358 38.52 5.12858 38.485 5.33191 38.485C5.64525 38.485 5.88858 38.5667 6.06191 38.73C6.23525 38.89 6.32191 39.1167 6.32191 39.41V40.515C6.32191 40.615 6.36858 40.665 6.46191 40.665H6.68691V41H6.34191C6.23191 41 6.14358 40.97 6.07691 40.91C6.01025 40.8467 5.97691 40.7633 5.97691 40.66V40.635H5.91691C5.88025 40.6983 5.83025 40.765 5.76691 40.835C5.70691 40.9017 5.62358 40.9567 5.51691 41C5.41025 41.0467 5.27191 41.07 5.10191 41.07ZM5.14691 40.73C5.38025 40.73 5.56858 40.6617 5.71191 40.525C5.85858 40.385 5.93191 40.19 5.93191 39.94V39.885H5.12191C4.96525 39.885 4.83525 39.92 4.73191 39.99C4.63191 40.0567 4.58191 40.1583 4.58191 40.295C4.58191 40.4317 4.63358 40.5383 4.73691 40.615C4.84358 40.6917 4.98025 40.73 5.14691 40.73ZM7.81117 41L6.93617 38.555H7.35617L8.09117 40.705H8.16117L8.89617 38.555H9.31617L8.44117 41H7.81117ZM10.6584 41.07C10.4884 41.07 10.3334 41.04 10.1934 40.98C10.0534 40.92 9.94336 40.8333 9.86336 40.72C9.78336 40.6067 9.74336 40.4683 9.74336 40.305C9.74336 40.1383 9.78336 40.0017 9.86336 39.895C9.94336 39.785 10.0534 39.7033 10.1934 39.65C10.3334 39.5933 10.49 39.565 10.6634 39.565H11.4884V39.385C11.4884 39.2117 11.4367 39.075 11.3334 38.975C11.2334 38.875 11.0834 38.825 10.8834 38.825C10.6867 38.825 10.5334 38.8733 10.4234 38.97C10.3134 39.0633 10.2384 39.19 10.1984 39.35L9.82836 39.23C9.86836 39.0933 9.93169 38.97 10.0184 38.86C10.105 38.7467 10.22 38.6567 10.3634 38.59C10.51 38.52 10.685 38.485 10.8884 38.485C11.2017 38.485 11.445 38.5667 11.6184 38.73C11.7917 38.89 11.8784 39.1167 11.8784 39.41V40.515C11.8784 40.615 11.925 40.665 12.0184 40.665H12.2434V41H11.8984C11.7884 41 11.7 40.97 11.6334 40.91C11.5667 40.8467 11.5334 40.7633 11.5334 40.66V40.635H11.4734C11.4367 40.6983 11.3867 40.765 11.3234 40.835C11.2634 40.9017 11.18 40.9567 11.0734 41C10.9667 41.0467 10.8284 41.07 10.6584 41.07ZM10.7034 40.73C10.9367 40.73 11.125 40.6617 11.2684 40.525C11.415 40.385 11.4884 40.19 11.4884 39.94V39.885H10.6784C10.5217 39.885 10.3917 39.92 10.2884 39.99C10.1884 40.0567 10.1384 40.1583 10.1384 40.295C10.1384 40.4317 10.19 40.5383 10.2934 40.615C10.4 40.6917 10.5367 40.73 10.7034 40.73ZM13.8498 41.07C13.5465 41.07 13.2898 41 13.0798 40.86C12.8731 40.72 12.7481 40.4983 12.7048 40.195L13.0798 40.11C13.1065 40.27 13.1565 40.3967 13.2298 40.49C13.3031 40.58 13.3931 40.645 13.4998 40.685C13.6098 40.7217 13.7265 40.74 13.8498 40.74C14.0331 40.74 14.1781 40.7033 14.2848 40.63C14.3915 40.5567 14.4448 40.4583 14.4448 40.335C14.4448 40.2083 14.3931 40.12 14.2898 40.07C14.1898 40.0167 14.0515 39.9733 13.8748 39.94L13.6698 39.905C13.5131 39.8783 13.3698 39.8367 13.2398 39.78C13.1098 39.7233 13.0065 39.6467 12.9298 39.55C12.8531 39.4533 12.8148 39.3317 12.8148 39.185C12.8148 38.965 12.8998 38.7933 13.0698 38.67C13.2398 38.5467 13.4648 38.485 13.7448 38.485C14.0215 38.485 14.2448 38.5483 14.4148 38.675C14.5881 38.7983 14.6998 38.9733 14.7498 39.2L14.3798 39.295C14.3498 39.1183 14.2781 38.995 14.1648 38.925C14.0515 38.8517 13.9115 38.815 13.7448 38.815C13.5781 38.815 13.4465 38.8467 13.3498 38.91C13.2531 38.97 13.2048 39.06 13.2048 39.18C13.2048 39.2967 13.2498 39.3833 13.3398 39.44C13.4331 39.4933 13.5565 39.5333 13.7098 39.56L13.9148 39.595C14.0881 39.625 14.2431 39.6667 14.3798 39.72C14.5198 39.77 14.6298 39.8433 14.7098 39.94C14.7931 40.0367 14.8348 40.1633 14.8348 40.32C14.8348 40.56 14.7448 40.745 14.5648 40.875C14.3881 41.005 14.1498 41.07 13.8498 41.07ZM16.7265 41.07C16.4899 41.07 16.2765 41.02 16.0865 40.92C15.8999 40.8167 15.7515 40.67 15.6415 40.48C15.5349 40.29 15.4815 40.065 15.4815 39.805V39.75C15.4815 39.4867 15.5349 39.2617 15.6415 39.075C15.7515 38.885 15.8999 38.74 16.0865 38.64C16.2765 38.5367 16.4899 38.485 16.7265 38.485C16.9599 38.485 17.1582 38.5283 17.3215 38.615C17.4882 38.7017 17.6182 38.8167 17.7115 38.96C17.8082 39.1033 17.8699 39.2567 17.8965 39.42L17.5115 39.5C17.4949 39.38 17.4549 39.27 17.3915 39.17C17.3315 39.07 17.2465 38.99 17.1365 38.93C17.0265 38.87 16.8915 38.84 16.7315 38.84C16.5682 38.84 16.4215 38.8767 16.2915 38.95C16.1649 39.0233 16.0632 39.1283 15.9865 39.265C15.9132 39.4017 15.8765 39.565 15.8765 39.755V39.8C15.8765 39.99 15.9132 40.1533 15.9865 40.29C16.0632 40.4267 16.1649 40.5317 16.2915 40.605C16.4215 40.6783 16.5682 40.715 16.7315 40.715C16.9749 40.715 17.1599 40.6517 17.2865 40.525C17.4165 40.3983 17.4965 40.2417 17.5265 40.055L17.9165 40.14C17.8799 40.3 17.8132 40.4517 17.7165 40.595C17.6199 40.7383 17.4882 40.8533 17.3215 40.94C17.1582 41.0267 16.9599 41.07 16.7265 41.07ZM18.6898 41V38.555H19.0748V38.855H19.1448C19.1881 38.7483 19.2548 38.67 19.3448 38.62C19.4348 38.57 19.5531 38.545 19.6998 38.545H19.9898V38.905H19.6748C19.4981 38.905 19.3548 38.955 19.2448 39.055C19.1381 39.1517 19.0848 39.3033 19.0848 39.51V41H18.6898ZM20.6746 41V38.555H21.0696V41H20.6746ZM20.8746 38.175C20.7879 38.175 20.7146 38.1467 20.6546 38.09C20.5979 38.0333 20.5696 37.9617 20.5696 37.875C20.5696 37.785 20.5979 37.7117 20.6546 37.655C20.7146 37.5983 20.7879 37.57 20.8746 37.57C20.9612 37.57 21.0329 37.5983 21.0896 37.655C21.1462 37.7117 21.1746 37.785 21.1746 37.875C21.1746 37.9617 21.1462 38.0333 21.0896 38.09C21.0329 38.1467 20.9612 38.175 20.8746 38.175ZM22.0002 42V38.555H22.3852V38.96H22.4552C22.5185 38.8367 22.6202 38.7267 22.7602 38.63C22.9035 38.5333 23.1018 38.485 23.3552 38.485C23.5652 38.485 23.7568 38.5367 23.9302 38.64C24.1068 38.74 24.2468 38.8833 24.3502 39.07C24.4568 39.2567 24.5102 39.4817 24.5102 39.745V39.81C24.5102 40.07 24.4585 40.295 24.3552 40.485C24.2518 40.675 24.1118 40.82 23.9352 40.92C23.7618 41.02 23.5685 41.07 23.3552 41.07C23.1852 41.07 23.0402 41.0467 22.9202 41C22.8035 40.9567 22.7085 40.9 22.6352 40.83C22.5618 40.76 22.5052 40.6883 22.4652 40.615H22.3952V42H22.0002ZM23.2502 40.72C23.5035 40.72 23.7085 40.64 23.8652 40.48C24.0252 40.3167 24.1052 40.09 24.1052 39.8V39.755C24.1052 39.465 24.0252 39.24 23.8652 39.08C23.7085 38.9167 23.5035 38.835 23.2502 38.835C23.0002 38.835 22.7935 38.9167 22.6302 39.08C22.4702 39.24 22.3902 39.465 22.3902 39.755V39.8C22.3902 40.09 22.4702 40.3167 22.6302 40.48C22.7935 40.64 23.0002 40.72 23.2502 40.72ZM26.1154 41C25.9754 41 25.8671 40.9617 25.7904 40.885C25.7171 40.8083 25.6804 40.7033 25.6804 40.57V38.9H24.9454V38.555H25.6804V37.685H26.0754V38.555H26.8754V38.9H26.0754V40.51C26.0754 40.61 26.1237 40.66 26.2204 40.66H26.7654V41H26.1154Z" fill="white"/>
</svg>
