<svg width="30" height="42" viewBox="0 0 30 42" fill="none" xmlns="http://www.w3.org/2000/svg">
<circle cx="15" cy="15" r="15" fill="white"/>
<path d="M14.3713 20.3306C14.3713 20.3306 14.3713 13.9738 14.6186 13.9744C14.8098 13.9744 15.0585 22.1743 15.0585 22.1743C14.7163 22.1399 14.3713 20.8251 14.3713 20.3306ZM19.164 14.048C18.5034 11.584 17.0566 9.46548 15.0613 7.8304L15.0563 7.82672C14.8134 7.51013 14.5913 7.14692 14.413 6.76407L14.3958 6.72235C14.3965 6.73462 14.3965 6.74935 14.3965 6.76407C14.3965 7.11072 14.2147 7.42056 13.9279 7.62855L13.9257 7.62977C11.3569 9.49125 9.72247 12.2344 9.66857 15.3039V15.3119C9.66785 15.3499 9.66785 15.3947 9.66785 15.4395C9.66785 18.4808 11.3821 21.1804 14.0307 22.8725L14.0587 22.8897L14.1212 22.9283C14.2367 23.658 14.3354 24.3894 14.4173 25.1224H14.8493C14.9686 24.2076 15.1296 23.4069 15.3402 22.6216L15.3072 22.7682C15.5918 22.5995 15.8405 22.4246 16.0726 22.235L16.0705 22.2369C18.0837 20.6435 19.3401 18.3734 19.3401 15.8536C19.3401 15.8162 19.3401 15.7794 19.3393 15.742V15.7475C19.3372 15.1456 19.2732 14.5572 19.1518 13.986L19.1625 14.0468L19.164 14.048Z" fill="black"/>
<path d="M3.4 41V37.5H4.2L5.13 40.735H5.195L6.125 37.5H6.925V41H6.52V37.775H6.45L5.525 41H4.8L3.875 37.775H3.805V41H3.4ZM8.97117 41.07C8.72451 41.07 8.50617 41.0183 8.31617 40.915C8.12951 40.8117 7.98284 40.6667 7.87617 40.48C7.77284 40.29 7.72117 40.0667 7.72117 39.81V39.745C7.72117 39.4917 7.77284 39.27 7.87617 39.08C7.98284 38.89 8.12951 38.7433 8.31617 38.64C8.50617 38.5367 8.72451 38.485 8.97117 38.485C9.21784 38.485 9.43451 38.5367 9.62117 38.64C9.81117 38.7433 9.95784 38.89 10.0612 39.08C10.1678 39.27 10.2212 39.4917 10.2212 39.745V39.81C10.2212 40.0667 10.1678 40.29 10.0612 40.48C9.95784 40.6667 9.81117 40.8117 9.62117 40.915C9.43451 41.0183 9.21784 41.07 8.97117 41.07ZM8.97117 40.715C9.23117 40.715 9.43784 40.6333 9.59117 40.47C9.74784 40.3033 9.82617 40.08 9.82617 39.8V39.755C9.82617 39.475 9.74784 39.2533 9.59117 39.09C9.43784 38.9233 9.23117 38.84 8.97117 38.84C8.71451 38.84 8.50784 38.9233 8.35117 39.09C8.19451 39.2533 8.11617 39.475 8.11617 39.755V39.8C8.11617 40.08 8.19451 40.3033 8.35117 40.47C8.50784 40.6333 8.71451 40.715 8.97117 40.715ZM11.032 41V38.555H11.417V38.97H11.487C11.5403 38.8533 11.6303 38.7483 11.757 38.655C11.887 38.5583 12.077 38.51 12.327 38.51C12.5103 38.51 12.6737 38.5483 12.817 38.625C12.9637 38.7017 13.0803 38.815 13.167 38.965C13.2537 39.115 13.297 39.3 13.297 39.52V41H12.902V39.55C12.902 39.3067 12.8403 39.13 12.717 39.02C12.597 38.91 12.4337 38.855 12.227 38.855C11.9903 38.855 11.797 38.9317 11.647 39.085C11.5003 39.2383 11.427 39.4667 11.427 39.77V41H11.032ZM14.0784 39.79V39.72C14.0784 39.4633 14.1301 39.2433 14.2334 39.06C14.3367 38.8767 14.4767 38.735 14.6534 38.635C14.8301 38.535 15.0234 38.485 15.2334 38.485C15.4901 38.485 15.6867 38.535 15.8234 38.635C15.9634 38.7317 16.0667 38.84 16.1334 38.96H16.2034V38.555H16.5784V41.57C16.5784 41.7033 16.5417 41.8083 16.4684 41.885C16.3951 41.9617 16.2884 42 16.1484 42H14.4884V41.65H16.0434C16.1434 41.65 16.1934 41.6 16.1934 41.5V40.57H16.1234C16.0834 40.6433 16.0267 40.715 15.9534 40.785C15.8801 40.855 15.7851 40.9133 15.6684 40.96C15.5517 41.0033 15.4067 41.025 15.2334 41.025C15.0234 41.025 14.8301 40.975 14.6534 40.875C14.4767 40.775 14.3367 40.6333 14.2334 40.45C14.1301 40.2633 14.0784 40.0433 14.0784 39.79ZM15.3384 40.675C15.5917 40.675 15.7967 40.595 15.9534 40.435C16.1134 40.275 16.1934 40.055 16.1934 39.775V39.735C16.1934 39.4517 16.1134 39.2317 15.9534 39.075C15.7967 38.915 15.5917 38.835 15.3384 38.835C15.0884 38.835 14.8817 38.915 14.7184 39.075C14.5584 39.2317 14.4784 39.4517 14.4784 39.735V39.775C14.4784 40.055 14.5584 40.275 14.7184 40.435C14.8817 40.595 15.0884 40.675 15.3384 40.675ZM18.6364 41.07C18.3897 41.07 18.1714 41.0183 17.9814 40.915C17.7947 40.8117 17.6481 40.6667 17.5414 40.48C17.4381 40.29 17.3864 40.0667 17.3864 39.81V39.745C17.3864 39.4917 17.4381 39.27 17.5414 39.08C17.6481 38.89 17.7947 38.7433 17.9814 38.64C18.1714 38.5367 18.3897 38.485 18.6364 38.485C18.8831 38.485 19.0997 38.5367 19.2864 38.64C19.4764 38.7433 19.6231 38.89 19.7264 39.08C19.8331 39.27 19.8864 39.4917 19.8864 39.745V39.81C19.8864 40.0667 19.8331 40.29 19.7264 40.48C19.6231 40.6667 19.4764 40.8117 19.2864 40.915C19.0997 41.0183 18.8831 41.07 18.6364 41.07ZM18.6364 40.715C18.8964 40.715 19.1031 40.6333 19.2564 40.47C19.4131 40.3033 19.4914 40.08 19.4914 39.8V39.755C19.4914 39.475 19.4131 39.2533 19.2564 39.09C19.1031 38.9233 18.8964 38.84 18.6364 38.84C18.3797 38.84 18.1731 38.9233 18.0164 39.09C17.8597 39.2533 17.7814 39.475 17.7814 39.755V39.8C17.7814 40.08 17.8597 40.3033 18.0164 40.47C18.1731 40.6333 18.3797 40.715 18.6364 40.715ZM20.5172 41V40.625H21.0072V37.875H20.5172V37.5H21.8822C22.3422 37.5 22.6972 37.6167 22.9472 37.85C23.2006 38.0833 23.3272 38.4417 23.3272 38.925V39.575C23.3272 40.0617 23.2006 40.4217 22.9472 40.655C22.6972 40.885 22.3422 41 21.8822 41H20.5172ZM21.4272 40.62H21.8822C22.2222 40.62 22.4789 40.5367 22.6522 40.37C22.8256 40.2033 22.9122 39.945 22.9122 39.595V38.91C22.9122 38.5533 22.8256 38.2933 22.6522 38.13C22.4789 37.9667 22.2222 37.885 21.8822 37.885H21.4272V40.62ZM23.8057 41V40.625H24.2957V37.875H23.8057V37.5H25.5607C25.764 37.5 25.944 37.5367 26.1007 37.61C26.2607 37.6833 26.384 37.7867 26.4707 37.92C26.5607 38.05 26.6057 38.2033 26.6057 38.38V38.42C26.6057 38.5833 26.574 38.7183 26.5107 38.825C26.4474 38.9283 26.3724 39.01 26.2857 39.07C26.199 39.1267 26.114 39.1683 26.0307 39.195V39.265C26.114 39.285 26.2007 39.325 26.2907 39.385C26.3807 39.4417 26.4557 39.5233 26.5157 39.63C26.579 39.7367 26.6107 39.8717 26.6107 40.035V40.085C26.6107 40.275 26.564 40.44 26.4707 40.58C26.3807 40.7167 26.2557 40.8217 26.0957 40.895C25.939 40.965 25.759 41 25.5557 41H23.8057ZM24.7157 40.62H25.5107C25.7307 40.62 25.899 40.5683 26.0157 40.465C26.1324 40.3617 26.1907 40.2217 26.1907 40.045V40C26.1907 39.8233 26.1324 39.6833 26.0157 39.58C25.899 39.4767 25.7307 39.425 25.5107 39.425H24.7157V40.62ZM24.7157 39.045H25.5257C25.7257 39.045 25.8857 38.995 26.0057 38.895C26.1257 38.7917 26.1857 38.6567 26.1857 38.49V38.44C26.1857 38.27 26.1257 38.135 26.0057 38.035C25.889 37.9317 25.729 37.88 25.5257 37.88H24.7157V39.045Z" fill="white"/>
</svg>
