<svg width="32" height="42" viewBox="0 0 32 42" fill="none" xmlns="http://www.w3.org/2000/svg">
<circle cx="15" cy="15" r="15" fill="white"/>
<path d="M19.406 8.41904C19.289 8.41904 19.211 8.43256 19.1323 8.44931V8.45962H19.1443C19.199 8.54658 19.289 8.61421 19.3588 8.69473C19.4135 8.78556 19.46 8.87896 19.511 8.96979L19.5268 8.95626C19.6205 8.89893 19.6678 8.80875 19.6678 8.6709C19.6288 8.63032 19.6205 8.58716 19.586 8.5498C19.547 8.49247 19.4608 8.46284 19.406 8.41904ZM8.76918 19.7516H7.84365C7.81215 18.4099 7.7184 17.148 7.57439 15.964H7.56689L6.15685 19.7516H5.44958L4.05078 15.964H4.03878C3.93753 17.0977 3.87078 18.3628 3.84378 19.7516H3C3.05475 18.0607 3.19126 16.4774 3.41026 15.001H4.55855L5.89434 18.4904H5.90184L7.24963 15.001H8.34317C8.58542 16.7325 8.73018 18.3158 8.77293 19.7516H8.76918ZM12.7848 16.2461C12.4098 18.004 11.9095 19.2827 11.2968 20.0776C10.8122 20.6914 10.285 21 9.71046 21C9.5582 21 9.3707 20.9594 9.14419 20.8789V20.4563C9.25744 20.4699 9.38645 20.4795 9.5312 20.4795C9.80046 20.4795 10.0157 20.4125 10.18 20.2882C10.375 20.1336 10.4732 19.9597 10.4732 19.7684C10.4732 19.6344 10.399 19.3658 10.243 18.9567L9.23119 16.2461H10.1417L10.8685 18.2727C11.0328 18.7358 11.1033 19.0547 11.0718 19.2389C11.4738 18.3261 11.7513 17.3264 11.908 16.2461H12.7848ZM25.1129 19.7516H22.4804V15.001H23.3669V19.168H25.1129V19.7516ZM21.7926 19.8663L20.7771 19.4366C20.8671 19.3729 20.9526 19.3027 21.0313 19.2221C21.4648 18.7893 21.6801 18.1419 21.6801 17.2897C21.6801 15.716 20.9616 14.9314 19.5238 14.9314C18.8202 14.9314 18.2697 15.1292 17.8752 15.5286C17.4455 15.9647 17.2264 16.6088 17.2264 17.4578C17.2264 18.2933 17.4177 18.9039 17.801 19.2962C18.1527 19.6453 18.68 19.8231 19.3873 19.8231C19.649 19.8231 19.8913 19.7961 20.1103 19.7394L21.4348 20.4035L21.7978 19.8669L21.7926 19.8663ZM18.5 18.7989C18.2735 18.4904 18.164 17.9937 18.164 17.309C18.164 16.1115 18.5862 15.5144 19.4338 15.5144C19.8755 15.5144 20.2033 15.6587 20.4103 15.944C20.6331 16.2558 20.7463 16.746 20.7463 17.4237C20.7463 18.6282 20.3203 19.2357 19.4765 19.2357C19.031 19.2357 18.707 19.0914 18.4962 18.806L18.5 18.7989ZM16.8432 18.4369C16.8432 18.8395 16.6714 19.1719 16.3234 19.4263C15.9799 19.6846 15.5224 19.8154 14.9404 19.8154C14.3974 19.8154 13.8776 19.6679 13.3661 19.3722L13.6046 18.9632C14.0418 19.1513 14.4364 19.2453 14.7964 19.2453C15.1286 19.2453 15.3904 19.1816 15.5779 19.0572C15.7654 18.9297 15.8787 18.7519 15.8787 18.5271C15.8787 18.245 15.6484 18.0034 15.2299 17.8024C14.8429 17.6182 14.0658 17.2388 14.0658 17.2388C13.6436 16.974 13.4366 16.6919 13.4366 16.2255C13.4366 15.8397 13.5926 15.5311 13.9053 15.296C14.2219 15.0545 14.6239 14.9372 15.1241 14.9372C15.6356 14.9372 16.1044 15.0545 16.5267 15.2896L16.3122 15.6986C15.9529 15.5679 15.5974 15.5009 15.2494 15.5009C14.9644 15.5009 14.7454 15.5614 14.5931 15.6786C14.4409 15.7959 14.3471 15.9434 14.3471 16.1283C14.3471 16.4104 14.5819 16.652 15.0109 16.8594C15.4054 17.0436 16.1982 17.4333 16.1982 17.4333C16.6317 17.6948 16.8469 17.977 16.8469 18.4363L16.8432 18.4369ZM26.223 13.408C25.6875 13.3977 25.2734 13.4447 24.9262 13.5723C24.8287 13.6058 24.6682 13.6058 24.6524 13.7133C24.7072 13.7604 24.7147 13.8344 24.7619 13.8976C24.8437 14.0116 24.9809 14.1662 25.1099 14.2467C25.2509 14.3407 25.3912 14.4348 25.536 14.5153C25.7977 14.6532 26.091 14.7337 26.3482 14.8709C26.493 14.9514 26.6415 15.0551 26.7855 15.1395C26.8597 15.1833 26.9062 15.2606 27 15.287V15.2703C26.9527 15.22 26.9415 15.1459 26.8942 15.086C26.8275 15.0287 26.7615 14.9785 26.6947 14.9218C26.4997 14.697 26.2612 14.5024 25.9995 14.3414C25.785 14.2171 25.3162 14.0425 25.2299 13.8312L25.2179 13.8177C25.3627 13.8074 25.5345 13.7604 25.6747 13.7269C25.9012 13.6766 26.112 13.6863 26.3467 13.636C26.4525 13.6128 26.5575 13.5858 26.667 13.5555V13.5053C26.5462 13.4016 26.4562 13.2605 26.331 13.1632C25.9912 12.9114 25.6162 12.6634 25.2292 12.4585C25.0184 12.3413 24.7529 12.2672 24.5302 12.1699C24.4522 12.1364 24.3157 12.1197 24.2722 12.0624C24.1514 11.9348 24.0809 11.7706 23.9947 11.6192C23.8034 11.3036 23.6159 10.9551 23.4479 10.6195C23.3271 10.3947 23.2566 10.1731 23.1081 9.965C22.4204 8.98847 21.6703 8.39842 20.522 7.81804C20.276 7.69694 19.979 7.6467 19.6663 7.58292C19.4983 7.57648 19.334 7.56618 19.166 7.55973C19.0565 7.51915 18.9515 7.41222 18.8577 7.35811C18.4752 7.15005 17.4905 6.70365 17.2129 7.29434C17.0329 7.66988 17.4785 8.03576 17.6352 8.22386C17.7485 8.35784 17.8932 8.506 17.975 8.65351C18.0222 8.754 18.0335 8.85835 18.0807 8.96206C18.1865 9.21392 18.2877 9.49542 18.4287 9.73053C18.503 9.85163 18.581 9.97853 18.6747 10.0861C18.7295 10.1499 18.8232 10.1769 18.8427 10.2806C18.749 10.3979 18.7415 10.5692 18.6905 10.7103C18.4482 11.3609 18.542 12.1629 18.8817 12.6428C18.9913 12.787 19.2448 13.1027 19.5853 12.9816C19.886 12.8779 19.82 12.5519 19.9055 12.2633C19.925 12.1931 19.913 12.1493 19.9528 12.1023V12.1158C20.0503 12.2769 20.144 12.4315 20.2303 12.5925C20.4335 12.8746 20.7966 13.1664 21.0973 13.361C21.2578 13.4647 21.3823 13.6431 21.5818 13.7062V13.6895H21.5661C21.5233 13.6393 21.4686 13.6154 21.4138 13.5755C21.2931 13.4718 21.1596 13.3442 21.0621 13.2302C20.7846 12.9081 20.5348 12.5526 20.3158 12.1867C20.2063 12.0057 20.1125 11.8111 20.027 11.6334C19.988 11.5664 19.988 11.462 19.9213 11.4285C19.82 11.5528 19.6715 11.6598 19.601 11.8176C19.472 12.0624 19.46 12.3677 19.4098 12.6833C19.3865 12.6898 19.3978 12.6833 19.3865 12.6969C19.172 12.6498 19.0978 12.4617 19.019 12.3007C18.8157 11.8917 18.7842 11.2372 18.9567 10.7676C19.004 10.6465 19.2028 10.2678 19.1248 10.1537C19.082 10.0429 18.9492 9.97918 18.8787 9.89221C18.7887 9.78464 18.6987 9.64744 18.6365 9.52634C18.476 9.20426 18.398 8.84869 18.2225 8.52661C18.1445 8.3791 18.0035 8.2245 17.8902 8.0873C17.7612 7.9327 17.621 7.82255 17.5227 7.6409C17.4875 7.57713 17.441 7.47342 17.4957 7.40578C17.5077 7.35876 17.5347 7.34201 17.5895 7.32848C17.6757 7.26471 17.9255 7.34523 18.0117 7.38195C18.2577 7.46569 18.4647 7.54621 18.6717 7.66731C18.7655 7.72464 18.8667 7.83157 18.9883 7.86184H19.1293C19.3438 7.90242 19.5823 7.87215 19.7818 7.92561C20.1373 8.02288 20.4575 8.16395 20.7463 8.3179C21.6216 8.7978 22.3401 9.47545 22.8284 10.2839C22.9101 10.4146 22.9454 10.5357 23.0196 10.6729C23.1561 10.9583 23.3324 11.243 23.4726 11.5148C23.6129 11.7867 23.7464 12.0617 23.9489 12.2865C24.0502 12.4076 24.4492 12.4708 24.6322 12.5313C24.7649 12.5848 24.9719 12.6318 25.0889 12.6924C25.3192 12.8135 25.5457 12.9507 25.761 13.0846C25.8705 13.1484 26.2027 13.2927 26.2222 13.4067L26.223 13.408Z" fill="black"/>
<path d="M7.4 41V37.5H8.2L9.13 40.735H9.195L10.125 37.5H10.925V41H10.52V37.775H10.45L9.525 41H8.8L7.875 37.775H7.805V41H7.4ZM12.1362 42V41.65H13.5362C13.6328 41.65 13.6812 41.6 13.6812 41.5V40.61H13.6112C13.5778 40.68 13.5262 40.75 13.4562 40.82C13.3895 40.8867 13.3012 40.9417 13.1912 40.985C13.0812 41.025 12.9428 41.045 12.7762 41.045C12.5995 41.045 12.4362 41.0067 12.2862 40.93C12.1395 40.8533 12.0228 40.74 11.9362 40.59C11.8528 40.44 11.8112 40.2567 11.8112 40.04V38.555H12.2062V40.01C12.2062 40.25 12.2662 40.425 12.3862 40.535C12.5095 40.645 12.6745 40.7 12.8812 40.7C13.1145 40.7 13.3062 40.6233 13.4562 40.47C13.6062 40.3167 13.6812 40.0883 13.6812 39.785V38.555H14.0762V41.57C14.0762 41.7033 14.0378 41.8083 13.9612 41.885C13.8878 41.9617 13.7795 42 13.6362 42H12.1362ZM16.1527 41.07C15.8994 41.07 15.6727 41.025 15.4727 40.935C15.2727 40.845 15.1144 40.71 14.9977 40.53C14.8844 40.3467 14.8277 40.1183 14.8277 39.845V39.74H15.2427V39.845C15.2427 40.135 15.3277 40.3517 15.4977 40.495C15.6677 40.635 15.886 40.705 16.1527 40.705C16.426 40.705 16.6344 40.6433 16.7777 40.52C16.921 40.3967 16.9927 40.2417 16.9927 40.055C16.9927 39.925 16.9594 39.8217 16.8927 39.745C16.8294 39.6683 16.7394 39.6067 16.6227 39.56C16.506 39.51 16.3694 39.4667 16.2127 39.43L15.9527 39.365C15.7494 39.3117 15.5694 39.2467 15.4127 39.17C15.256 39.0933 15.1327 38.9933 15.0427 38.87C14.956 38.7433 14.9127 38.5817 14.9127 38.385C14.9127 38.1883 14.961 38.0183 15.0577 37.875C15.1577 37.7317 15.296 37.6217 15.4727 37.545C15.6527 37.4683 15.8594 37.43 16.0927 37.43C16.3294 37.43 16.541 37.4717 16.7277 37.555C16.9177 37.635 17.066 37.755 17.1727 37.915C17.2827 38.0717 17.3377 38.27 17.3377 38.51V38.72H16.9227V38.51C16.9227 38.34 16.886 38.2033 16.8127 38.1C16.7427 37.9967 16.6444 37.92 16.5177 37.87C16.3944 37.82 16.2527 37.795 16.0927 37.795C15.8627 37.795 15.6777 37.8467 15.5377 37.95C15.3977 38.05 15.3277 38.1933 15.3277 38.38C15.3277 38.5033 15.3577 38.6033 15.4177 38.68C15.4777 38.7567 15.5627 38.82 15.6727 38.87C15.7827 38.9167 15.9144 38.9583 16.0677 38.995L16.3277 39.06C16.531 39.1033 16.7127 39.1633 16.8727 39.24C17.036 39.3133 17.166 39.415 17.2627 39.545C17.3594 39.6717 17.4077 39.8383 17.4077 40.045C17.4077 40.2517 17.356 40.4317 17.2527 40.585C17.1494 40.7383 17.0027 40.8583 16.8127 40.945C16.626 41.0283 16.406 41.07 16.1527 41.07ZM19.4241 41.07C19.0074 41.07 18.6741 40.95 18.4241 40.71C18.1774 40.4667 18.0541 40.1133 18.0541 39.65V38.85C18.0541 38.3867 18.1774 38.035 18.4241 37.795C18.6741 37.5517 19.0074 37.43 19.4241 37.43C19.8441 37.43 20.1774 37.5517 20.4241 37.795C20.6741 38.035 20.7991 38.3867 20.7991 38.85V39.65C20.7991 40.1133 20.6741 40.4667 20.4241 40.71C20.1774 40.95 19.8441 41.07 19.4241 41.07ZM19.4241 40.695C19.7274 40.695 19.9624 40.605 20.1291 40.425C20.2958 40.2417 20.3791 39.9883 20.3791 39.665V38.835C20.3791 38.5117 20.2958 38.26 20.1291 38.08C19.9624 37.8967 19.7274 37.805 19.4241 37.805C19.1241 37.805 18.8908 37.8967 18.7241 38.08C18.5574 38.26 18.4741 38.5117 18.4741 38.835V39.665C18.4741 39.9883 18.5574 40.2417 18.7241 40.425C18.8908 40.605 19.1241 40.695 19.4241 40.695ZM19.6291 41.81C19.5058 41.81 19.4058 41.7717 19.3291 41.695C19.2558 41.6217 19.2191 41.52 19.2191 41.39V41H19.6291V41.315C19.6291 41.415 19.6758 41.465 19.7691 41.465H20.0991V41.81H19.6291ZM21.5988 41V37.5H22.0188V40.62H23.7888V41H21.5988Z" fill="white"/>
</svg>
