<svg width="30" height="43" viewBox="0 0 30 43" fill="none" xmlns="http://www.w3.org/2000/svg">
<circle cx="15" cy="15" r="15" fill="white"/>
<path d="M15.4951 4.53125C15.1871 4.53125 14.8792 4.60679 14.6134 4.75867L6.25171 9.58551C5.71171 9.8977 5.375 10.4888 5.375 11.1132V19.8704C5.375 20.5032 5.71171 21.0858 6.25171 21.398L8.44678 22.6636C9.5099 23.1868 9.889 23.186 10.3699 23.186C11.9477 23.186 12.8501 22.2327 12.8501 20.579V11.5433C12.8501 11.4083 12.7412 11.2977 12.6062 11.2977H11.5515C11.4081 11.2977 11.306 11.4083 11.306 11.5433V20.5707C11.306 21.3132 10.5391 22.0387 9.29877 21.4227L7.00317 20.0978C6.9188 20.0556 6.86804 19.9632 6.86804 19.8704V11.1214C6.86804 11.0201 6.9188 10.9347 7.00317 10.8841L15.3649 6.0589C15.4408 6.00827 15.5425 6.00827 15.6269 6.0589L23.9886 10.8841C24.073 10.9347 24.1237 11.0203 24.1237 11.1132V19.8704C24.1237 19.9632 24.0728 20.0556 23.9968 20.0978L15.6269 24.9329C15.551 24.975 15.4408 24.975 15.3649 24.9329L13.2126 23.659C13.1536 23.6168 13.0707 23.6088 13.0116 23.6425C12.4125 23.98 12.3028 24.0219 11.746 24.216C11.611 24.2582 11.3999 24.3423 11.8218 24.5786L14.6134 26.2331C14.8834 26.385 15.188 26.4688 15.4918 26.4688C15.8039 26.4688 16.1067 26.385 16.3767 26.2331L24.7483 21.398C25.2883 21.0858 25.625 20.5032 25.625 19.8704V11.1214C25.625 10.4886 25.2883 9.90594 24.7483 9.59375L16.3767 4.75867C16.1109 4.60679 15.803 4.53125 15.4951 4.53125ZM17.7445 11.2862C15.3567 11.2862 13.9312 12.298 13.9312 13.9855C13.9312 15.8165 15.3473 16.3219 17.6423 16.5497C20.3845 16.8197 20.5955 17.2259 20.5955 17.7659C20.5955 18.6941 19.8458 19.0909 18.0823 19.0909C15.8633 19.0909 15.3736 18.5332 15.2133 17.4363C15.1964 17.3182 15.0957 17.2336 14.9776 17.2336H13.8883C13.7533 17.2336 13.6526 17.3444 13.6526 17.4709C13.6526 18.88 14.4205 20.5576 18.0823 20.5576C20.7317 20.5576 22.25 19.5126 22.25 17.6901C22.25 15.8845 21.0264 15.4026 18.4614 15.0567C15.8542 14.7192 15.5923 14.5419 15.5923 13.9344C15.5923 13.4282 15.8208 12.7628 17.7445 12.7628C19.4573 12.7628 20.0982 13.1328 20.3598 14.2888C20.3851 14.3984 20.4773 14.4832 20.5955 14.4832H21.6848C21.7523 14.4832 21.8105 14.4498 21.8611 14.3992C21.9033 14.357 21.9288 14.2889 21.9204 14.213C21.7517 12.2217 20.4276 11.2862 17.7445 11.2862Z" fill="black"/>
<path d="M9.4 42V38.5H10.215L11.435 41.735H11.5V38.5H11.915V42H11.1L9.885 38.76H9.815V42H9.4ZM13.9653 42.07C13.7186 42.07 13.5003 42.0183 13.3103 41.915C13.1236 41.8117 12.977 41.6667 12.8703 41.48C12.767 41.29 12.7153 41.0667 12.7153 40.81V40.745C12.7153 40.4917 12.767 40.27 12.8703 40.08C12.977 39.89 13.1236 39.7433 13.3103 39.64C13.5003 39.5367 13.7186 39.485 13.9653 39.485C14.212 39.485 14.4286 39.5367 14.6153 39.64C14.8053 39.7433 14.952 39.89 15.0553 40.08C15.162 40.27 15.2153 40.4917 15.2153 40.745V40.81C15.2153 41.0667 15.162 41.29 15.0553 41.48C14.952 41.6667 14.8053 41.8117 14.6153 41.915C14.4286 42.0183 14.212 42.07 13.9653 42.07ZM13.9653 41.715C14.2253 41.715 14.432 41.6333 14.5853 41.47C14.742 41.3033 14.8203 41.08 14.8203 40.8V40.755C14.8203 40.475 14.742 40.2533 14.5853 40.09C14.432 39.9233 14.2253 39.84 13.9653 39.84C13.7086 39.84 13.502 39.9233 13.3453 40.09C13.1886 40.2533 13.1103 40.475 13.1103 40.755V40.8C13.1103 41.08 13.1886 41.3033 13.3453 41.47C13.502 41.6333 13.7086 41.715 13.9653 41.715ZM17.0611 42.07C16.8511 42.07 16.6578 42.02 16.4811 41.92C16.3045 41.82 16.1645 41.675 16.0611 41.485C15.9578 41.295 15.9061 41.07 15.9061 40.81V40.745C15.9061 40.485 15.9578 40.2617 16.0611 40.075C16.1645 39.885 16.3028 39.74 16.4761 39.64C16.6528 39.5367 16.8478 39.485 17.0611 39.485C17.2311 39.485 17.3745 39.5083 17.4911 39.555C17.6111 39.5983 17.7078 39.655 17.7811 39.725C17.8545 39.7917 17.9111 39.8633 17.9511 39.94H18.0211V38.5H18.4161V42H18.0311V41.595H17.9611C17.8945 41.7183 17.7911 41.8283 17.6511 41.925C17.5111 42.0217 17.3145 42.07 17.0611 42.07ZM17.1661 41.72C17.4195 41.72 17.6245 41.64 17.7811 41.48C17.9411 41.3167 18.0211 41.09 18.0211 40.8V40.755C18.0211 40.465 17.9411 40.24 17.7811 40.08C17.6245 39.9167 17.4195 39.835 17.1661 39.835C16.9161 39.835 16.7095 39.9167 16.5461 40.08C16.3861 40.24 16.3061 40.465 16.3061 40.755V40.8C16.3061 41.09 16.3861 41.3167 16.5461 41.48C16.7095 41.64 16.9161 41.72 17.1661 41.72ZM20.4639 42.07C20.2172 42.07 20.0006 42.0183 19.8139 41.915C19.6272 41.8083 19.4822 41.66 19.3789 41.47C19.2756 41.28 19.2239 41.06 19.2239 40.81V40.75C19.2239 40.4967 19.2756 40.275 19.3789 40.085C19.4822 39.895 19.6256 39.7483 19.8089 39.645C19.9922 39.5383 20.2022 39.485 20.4389 39.485C20.6689 39.485 20.8722 39.535 21.0489 39.635C21.2256 39.7317 21.3639 39.8717 21.4639 40.055C21.5639 40.2383 21.6139 40.4533 21.6139 40.7V40.88H19.6189C19.6289 41.1433 19.7139 41.35 19.8739 41.5C20.0339 41.6467 20.2339 41.72 20.4739 41.72C20.6839 41.72 20.8456 41.6717 20.9589 41.575C21.0722 41.4783 21.1589 41.3633 21.2189 41.23L21.5589 41.395C21.5089 41.4983 21.4389 41.6017 21.3489 41.705C21.2622 41.8083 21.1472 41.895 21.0039 41.965C20.8639 42.035 20.6839 42.07 20.4639 42.07ZM19.6239 40.555H21.2139C21.2006 40.3283 21.1222 40.1517 20.9789 40.025C20.8389 39.8983 20.6589 39.835 20.4389 39.835C20.2156 39.835 20.0322 39.8983 19.8889 40.025C19.7456 40.1517 19.6572 40.3283 19.6239 40.555Z" fill="white"/>
</svg>
