<svg width="30" height="42" viewBox="0 0 30 42" fill="none" xmlns="http://www.w3.org/2000/svg">
<circle cx="15" cy="15" r="15" fill="white"/>
<path d="M13.7402 19.9395V16.2188H9.99023V13.6504H13.7402V9.92969H16.2402V13.6504H20V16.2188H16.2402V19.9395H13.7402Z" fill="black"/>
<path d="M3.565 41.07C3.31167 41.07 3.085 41.025 2.885 40.935C2.685 40.845 2.52667 40.71 2.41 40.53C2.29667 40.3467 2.24 40.1183 2.24 39.845V39.74H2.655V39.845C2.655 40.135 2.74 40.3517 2.91 40.495C3.08 40.635 3.29833 40.705 3.565 40.705C3.83833 40.705 4.04667 40.6433 4.19 40.52C4.33333 40.3967 4.405 40.2417 4.405 40.055C4.405 39.925 4.37167 39.8217 4.305 39.745C4.24167 39.6683 4.15167 39.6067 4.035 39.56C3.91833 39.51 3.78167 39.4667 3.625 39.43L3.365 39.365C3.16167 39.3117 2.98167 39.2467 2.825 39.17C2.66833 39.0933 2.545 38.9933 2.455 38.87C2.36833 38.7433 2.325 38.5817 2.325 38.385C2.325 38.1883 2.37333 38.0183 2.47 37.875C2.57 37.7317 2.70833 37.6217 2.885 37.545C3.065 37.4683 3.27167 37.43 3.505 37.43C3.74167 37.43 3.95333 37.4717 4.14 37.555C4.33 37.635 4.47833 37.755 4.585 37.915C4.695 38.0717 4.75 38.27 4.75 38.51V38.72H4.335V38.51C4.335 38.34 4.29833 38.2033 4.225 38.1C4.155 37.9967 4.05667 37.92 3.93 37.87C3.80667 37.82 3.665 37.795 3.505 37.795C3.275 37.795 3.09 37.8467 2.95 37.95C2.81 38.05 2.74 38.1933 2.74 38.38C2.74 38.5033 2.77 38.6033 2.83 38.68C2.89 38.7567 2.975 38.82 3.085 38.87C3.195 38.9167 3.32667 38.9583 3.48 38.995L3.74 39.06C3.94333 39.1033 4.125 39.1633 4.285 39.24C4.44833 39.3133 4.57833 39.415 4.675 39.545C4.77167 39.6717 4.82 39.8383 4.82 40.045C4.82 40.2517 4.76833 40.4317 4.665 40.585C4.56167 40.7383 4.415 40.8583 4.225 40.945C4.03833 41.0283 3.81833 41.07 3.565 41.07ZM6.71141 41.07C6.46474 41.07 6.24641 41.0183 6.05641 40.915C5.86974 40.8117 5.72307 40.6667 5.61641 40.48C5.51307 40.29 5.46141 40.0667 5.46141 39.81V39.745C5.46141 39.4917 5.51307 39.27 5.61641 39.08C5.72307 38.89 5.86974 38.7433 6.05641 38.64C6.24641 38.5367 6.46474 38.485 6.71141 38.485C6.95807 38.485 7.17474 38.5367 7.36141 38.64C7.55141 38.7433 7.69807 38.89 7.80141 39.08C7.90807 39.27 7.96141 39.4917 7.96141 39.745V39.81C7.96141 40.0667 7.90807 40.29 7.80141 40.48C7.69807 40.6667 7.55141 40.8117 7.36141 40.915C7.17474 41.0183 6.95807 41.07 6.71141 41.07ZM6.71141 40.715C6.97141 40.715 7.17807 40.6333 7.33141 40.47C7.48807 40.3033 7.56641 40.08 7.56641 39.8V39.755C7.56641 39.475 7.48807 39.2533 7.33141 39.09C7.17807 38.9233 6.97141 38.84 6.71141 38.84C6.45474 38.84 6.24807 38.9233 6.09141 39.09C5.93474 39.2533 5.85641 39.475 5.85641 39.755V39.8C5.85641 40.08 5.93474 40.3033 6.09141 40.47C6.24807 40.6333 6.45474 40.715 6.71141 40.715ZM9.14969 41V38.9H8.39969V38.555H9.14969V37.93C9.14969 37.7967 9.18635 37.6917 9.25969 37.615C9.33635 37.5383 9.44469 37.5 9.58469 37.5H10.1997V37.84H9.69469C9.59469 37.84 9.54469 37.89 9.54469 37.99V38.555H10.3147V38.9H9.54469V41H9.14969ZM11.7986 41C11.6586 41 11.5503 40.9617 11.4736 40.885C11.4003 40.8083 11.3636 40.7033 11.3636 40.57V38.9H10.6286V38.555H11.3636V37.685H11.7586V38.555H12.5586V38.9H11.7586V40.51C11.7586 40.61 11.8069 40.66 11.9036 40.66H12.4486V41H11.7986ZM15.8277 41.07C15.5744 41.07 15.3477 41.025 15.1477 40.935C14.9477 40.845 14.7894 40.71 14.6727 40.53C14.5594 40.3467 14.5027 40.1183 14.5027 39.845V39.74H14.9177V39.845C14.9177 40.135 15.0027 40.3517 15.1727 40.495C15.3427 40.635 15.561 40.705 15.8277 40.705C16.101 40.705 16.3094 40.6433 16.4527 40.52C16.596 40.3967 16.6677 40.2417 16.6677 40.055C16.6677 39.925 16.6344 39.8217 16.5677 39.745C16.5044 39.6683 16.4144 39.6067 16.2977 39.56C16.181 39.51 16.0444 39.4667 15.8877 39.43L15.6277 39.365C15.4244 39.3117 15.2444 39.2467 15.0877 39.17C14.931 39.0933 14.8077 38.9933 14.7177 38.87C14.631 38.7433 14.5877 38.5817 14.5877 38.385C14.5877 38.1883 14.636 38.0183 14.7327 37.875C14.8327 37.7317 14.971 37.6217 15.1477 37.545C15.3277 37.4683 15.5344 37.43 15.7677 37.43C16.0044 37.43 16.216 37.4717 16.4027 37.555C16.5927 37.635 16.741 37.755 16.8477 37.915C16.9577 38.0717 17.0127 38.27 17.0127 38.51V38.72H16.5977V38.51C16.5977 38.34 16.561 38.2033 16.4877 38.1C16.4177 37.9967 16.3194 37.92 16.1927 37.87C16.0694 37.82 15.9277 37.795 15.7677 37.795C15.5377 37.795 15.3527 37.8467 15.2127 37.95C15.0727 38.05 15.0027 38.1933 15.0027 38.38C15.0027 38.5033 15.0327 38.6033 15.0927 38.68C15.1527 38.7567 15.2377 38.82 15.3477 38.87C15.4577 38.9167 15.5894 38.9583 15.7427 38.995L16.0027 39.06C16.206 39.1033 16.3877 39.1633 16.5477 39.24C16.711 39.3133 16.841 39.415 16.9377 39.545C17.0344 39.6717 17.0827 39.8383 17.0827 40.045C17.0827 40.2517 17.031 40.4317 16.9277 40.585C16.8244 40.7383 16.6777 40.8583 16.4877 40.945C16.301 41.0283 16.081 41.07 15.8277 41.07ZM17.8441 41V37.5H18.2391V39.56H18.3091L19.4291 38.555H19.9791L18.6241 39.745L20.0191 41H19.4741L18.3091 39.935H18.2391V41H17.8441ZM20.6345 41V38.555H21.0295V41H20.6345ZM20.8345 38.175C20.7479 38.175 20.6745 38.1467 20.6145 38.09C20.5579 38.0333 20.5295 37.9617 20.5295 37.875C20.5295 37.785 20.5579 37.7117 20.6145 37.655C20.6745 37.5983 20.7479 37.57 20.8345 37.57C20.9212 37.57 20.9929 37.5983 21.0495 37.655C21.1062 37.7117 21.1345 37.785 21.1345 37.875C21.1345 37.9617 21.1062 38.0333 21.0495 38.09C20.9929 38.1467 20.9212 38.175 20.8345 38.175ZM21.9601 41V37.5H22.3551V41H21.9601ZM23.2857 41V37.5H23.6807V41H23.2857ZM25.5963 41.07C25.293 41.07 25.0363 41 24.8263 40.86C24.6196 40.72 24.4946 40.4983 24.4513 40.195L24.8263 40.11C24.853 40.27 24.903 40.3967 24.9763 40.49C25.0496 40.58 25.1396 40.645 25.2463 40.685C25.3563 40.7217 25.473 40.74 25.5963 40.74C25.7796 40.74 25.9246 40.7033 26.0313 40.63C26.138 40.5567 26.1913 40.4583 26.1913 40.335C26.1913 40.2083 26.1396 40.12 26.0363 40.07C25.9363 40.0167 25.798 39.9733 25.6213 39.94L25.4163 39.905C25.2596 39.8783 25.1163 39.8367 24.9863 39.78C24.8563 39.7233 24.753 39.6467 24.6763 39.55C24.5996 39.4533 24.5613 39.3317 24.5613 39.185C24.5613 38.965 24.6463 38.7933 24.8163 38.67C24.9863 38.5467 25.2113 38.485 25.4913 38.485C25.768 38.485 25.9913 38.5483 26.1613 38.675C26.3346 38.7983 26.4463 38.9733 26.4963 39.2L26.1263 39.295C26.0963 39.1183 26.0246 38.995 25.9113 38.925C25.798 38.8517 25.658 38.815 25.4913 38.815C25.3246 38.815 25.193 38.8467 25.0963 38.91C24.9996 38.97 24.9513 39.06 24.9513 39.18C24.9513 39.2967 24.9963 39.3833 25.0863 39.44C25.1796 39.4933 25.303 39.5333 25.4563 39.56L25.6613 39.595C25.8346 39.625 25.9896 39.6667 26.1263 39.72C26.2663 39.77 26.3763 39.8433 26.4563 39.94C26.5396 40.0367 26.5813 40.1633 26.5813 40.32C26.5813 40.56 26.4913 40.745 26.3113 40.875C26.1346 41.005 25.8963 41.07 25.5963 41.07Z" fill="white"/>
</svg>